<?xml version="1.0" encoding="UTF-8"?>
<svg width="101px" height="101px" viewBox="0 0 101 101" version="1.1" xmlns="http://www.w3.org/2000/svg" xmlns:xlink="http://www.w3.org/1999/xlink">
    <title>Group 7</title>
    <g id="process-1" stroke="none" stroke-width="1" fill="none" fill-rule="evenodd">
        <g id="Pixel-2-XL-Copy-2" transform="translate(-130.000000, -1629.000000)" fill="#FFFFFF">
            <g id="Group-16" transform="translate(40.000000, 1552.000000)">
                <g id="Group-18" transform="translate(18.000000, 77.000000)">
                    <g id="Group-7" transform="translate(72.000000, 0.000000)">
                        <g id="Group-9" fill-opacity="0.370656687">
                            <circle id="Oval" cx="50.5" cy="50.5" r="50.5"></circle>
                        </g>
                        <g id="noun_Pie-Chart_2724279" transform="translate(29.417476, 27.456311)" fill-rule="nonzero">
                            <path d="M19.1699702,24.864353 L5.2339899,14.0451198 C4.99407125,13.85883 4.68860621,13.7804252 4.38721821,13.8284089 C4.08708469,13.8763927 3.82050841,14.0466879 3.65052684,14.2988376 C1.32253193,17.7530389 0.0918904093,21.7880628 0.0918904093,25.9676651 C0.0918904093,32.7540698 3.40684476,39.1462552 8.95947171,43.067749 C9.14638872,43.1997826 9.36780384,43.2687789 9.59266876,43.2687789 C9.67609146,43.2687789 9.75982777,43.2593703 9.84262322,43.2399259 C10.1484019,43.1684207 10.4087058,42.9698998 10.5576749,42.693915 L19.4619496,26.2539994 C19.7178628,25.781689 19.5942969,25.1936531 19.1699702,24.864353 Z M9.23577018,40.524925 C4.86360569,36.9810286 2.28722442,31.6269226 2.28722442,25.9676651 C2.28722442,22.6219761 3.16818059,19.380095 4.8441613,16.5214565 L17.0881663,26.0272528 L9.23577018,40.524925 Z" id="Shape"></path>
                            <path d="M2.89125489,9.18966816 L18.0418821,20.9453682 C18.2382077,21.0977871 18.4756174,21.1758782 18.7149088,21.1758782 C18.8792452,21.1758782 19.0445225,21.1391848 19.1975687,21.0642298 C19.5739116,20.8798218 19.8125758,20.4972064 19.8125758,20.0782112 L19.8125758,1.25447658 C19.8125758,0.945875339 19.6827375,0.651700582 19.4547364,0.443771089 C19.2267353,0.235841596 18.9225247,0.13203366 18.6148643,0.161513859 C12.6720951,0.704702217 7.05298093,3.32593102 2.79183762,7.54191318 C2.5669727,7.76426915 2.4490519,8.07255677 2.46818267,8.38805763 C2.48731343,8.70387211 2.64130043,8.99585153 2.89125489,9.18966816 Z M17.6169282,2.48856791 L17.6169282,17.8367752 L5.25217981,8.24253835 C8.72300288,5.15527149 13.0380887,3.14716811 17.6169282,2.48856791 Z" id="Shape"></path>
                            <path d="M33.0269185,8.84343263 C31.6981141,7.90884758 30.2623657,7.12981762 28.7569938,6.52766887 C27.0443197,5.84680171 25.2551224,5.39707185 23.438954,5.19102408 C23.1272166,5.15558511 22.8173608,5.25468876 22.5840282,5.46293187 C22.3506956,5.67117498 22.2174074,5.96911317 22.2174074,6.28179146 L22.2174074,26.2235784 L12.6667636,43.8464653 C12.5174809,44.1218229 12.4930186,44.4479868 12.5993355,44.7424752 C12.705966,45.0369636 12.9333399,45.2721779 13.2240648,45.3888443 C14.9464612,46.0772383 16.7513394,46.5332405 18.5875794,46.7443062 C19.3938943,46.838392 20.2108721,46.8860621 21.014678,46.8860621 C21.8187975,46.8860621 22.6357754,46.838392 23.4408357,46.7443062 C28.5214658,46.1584656 33.2028588,43.7250947 36.6216211,39.893296 C37.7108204,38.6755129 38.6516778,37.3379272 39.4162813,35.9194278 C41.0624682,32.8876716 41.9327613,29.4463287 41.9327613,25.9676651 C41.9330749,19.1605616 38.6033805,12.7589676 33.0269185,8.84343263 Z M38.7222421,32.0521902 L24.4127414,17.7433167 L24.4127414,10.7085257 L39.7368,26.0297617 C39.7299004,28.0852216 39.3830377,30.1240597 38.7222421,32.0521902 Z M27.9437794,8.56682054 C29.2888919,9.104991 30.5741031,9.80185273 31.764915,10.6395295 C36.1242211,13.7001387 38.9483615,18.4574275 39.5950442,23.6707185 L24.4127414,8.49123833 L24.4127414,7.55320347 C25.6157845,7.77210963 26.7990695,8.11175917 27.9437794,8.56682054 Z M23.5565612,28.3593247 L34.3262426,39.1290061 C33.1369988,40.3326764 31.8019221,41.3619745 30.3577059,42.1949469 L21.083047,32.9234241 L23.5565612,28.3593247 Z M23.4373859,44.5292142 L17.8317573,38.9238992 L20.304017,34.3616815 L28.898436,42.9535916 C27.1819985,43.7508115 25.3419949,44.2833368 23.4373859,44.5292142 Z M18.8397292,44.5633987 C17.6050107,44.4216428 16.3869139,44.156321 15.2039425,43.7721376 L17.0521001,40.361843 L21.3703221,44.6797514 C20.5270002,44.695746 19.6824239,44.6618751 18.8397292,44.5633987 Z M35.3784348,37.963911 L24.3246144,26.9100907 C24.3773025,26.7796251 24.4124278,26.6428872 24.4124278,26.5011313 L24.4124278,19.9606041 L38.0937494,33.641612 C37.9058915,34.0596663 37.7042344,34.4717619 37.4853282,34.8750761 C36.8966651,35.9674116 36.1850632,37.0007866 35.3784348,37.963911 Z" id="Shape"></path>
                        </g>
                    </g>
                </g>
            </g>
        </g>
    </g>
</svg>