<?xml version="1.0" encoding="UTF-8"?>
<svg width="103px" height="103px" viewBox="0 0 103 103" version="1.1" xmlns="http://www.w3.org/2000/svg" xmlns:xlink="http://www.w3.org/1999/xlink">
    <title>Group 17 Copy</title>
    <g id="process-1" stroke="none" stroke-width="1" fill="none" fill-rule="evenodd">
        <g id="katabasis-web-copy" transform="translate(-1026.000000, -1211.000000)" fill="#FFFFFF">
            <g id="Group-24" transform="translate(239.000000, 1124.000000)">
                <g id="Group-12-Copy" transform="translate(689.000000, 87.000000)">
                    <g id="Group-8" transform="translate(98.000000, 0.000000)">
                        <circle id="Oval" fill-opacity="0.370656687" cx="51.5" cy="51.5" r="51.5"></circle>
                        <g id="noun_growth_791005" transform="translate(25.000000, 28.000000)" fill-rule="nonzero">
                            <path d="M52.7460786,0.852516913 L52.7460786,0.852516913 C52.9866284,0.886215957 53.2036015,1.01511373 53.3483513,1.21031064 C53.4931012,1.40550755 53.5535174,1.65067273 53.5160544,1.89083879 C50.5672106,19.7390455 44.5275416,22.9141245 39.7110967,22.1763695 C38.6251642,22.0038097 37.5718665,21.6665794 36.5875066,21.1763015 C35.1722577,20.473142 33.8957309,19.5196688 32.8195395,18.3619027 C31.3506094,20.5668273 30.4500821,23.1014293 30.198345,25.739453 L24.0767637,25.739453 C24.2870127,24.8829579 24.5589443,24.0428182 24.8904261,23.225621 L24.8904261,22.7993626 C24.8904261,22.635417 24.8904261,22.4732931 24.8904261,22.3129908 C24.7221203,19.9042448 23.6767952,17.6409429 21.952504,15.951903 L18.5231078,12.5254408 C18.4847134,12.485566 18.4260648,12.4728275 18.3746069,12.4931864 C18.323149,12.5135452 18.2890602,12.5629744 18.2882925,12.6183433 C18.2870752,12.629239 18.2870752,12.6402366 18.2882925,12.6511324 C18.8498084,14.8326355 19.8473827,16.8775919 21.2207538,18.6624696 C17.7695144,19.9576395 11.7462279,19.9794989 11.5660207,4.45385439 L11.5660207,4.45385439 C11.5660207,4.29347243 11.63005,4.13973767 11.7438852,4.02684481 C11.8577203,3.91395196 12.0119149,3.85126265 12.172172,3.85272067 C24.1859801,3.99480682 26.8727045,7.64532796 26.8727045,10.8914501 C26.8640772,11.6154362 26.7462513,12.3339678 26.5232119,13.0227423 C26.2454842,13.9013866 25.828817,14.729801 25.2890661,15.4764609 C26.2639672,16.3378851 27.0937341,17.3509478 27.746436,18.4766646 C28.6220832,17.4168583 29.6150173,16.459858 30.7062014,15.6240119 L33.5512896,13.5255087 L33.5512896,13.5255087 L39.1868578,9.37768605 C39.2536459,9.32834562 39.2846225,9.24391914 39.2656088,9.16305099 C39.246595,9.08218284 39.1812503,9.02043693 39.0994847,9.00607611 L39.0448765,9.00607611 C35.6740066,9.35202046 32.4081984,10.3782187 29.4447516,12.0226744 C28.3034398,6.55782241 29.646802,-2.40453488 52.7460786,0.852516913 Z M13.3790136,45.0030563 L30.2420316,45.0030563 C32.5157477,45.0028556 34.6782377,44.0184556 36.1724841,42.3034194 L46.7337137,30.2206316 C47.3196285,29.5470847 47.6088961,28.6652845 47.5358965,27.7752667 C47.4628969,26.8852489 47.0338177,26.0624548 46.3459953,25.4935346 C45.7694501,25.0188498 45.0447607,24.761637 44.2981871,24.7666357 C43.2957767,24.771355 42.3426764,25.2025538 41.6769926,25.9525822 L36.7185663,31.4830124 C36.7185663,31.4830124 36.7185663,31.5321961 36.7185663,31.5595203 C36.5666569,34.6466932 34.0132299,37.0671343 30.9246343,37.0516966 L24.8522004,37.0516966 C24.3906916,37.0824014 23.9504863,36.8534247 23.7104162,36.4577874 C23.470346,36.06215 23.470346,35.5656653 23.7104162,35.1700279 C23.9504863,34.7743906 24.3906916,34.5454139 24.8522004,34.5761187 L30.9246343,34.5761187 C32.6809281,34.6023692 34.1454755,33.237985 34.244814,31.4830124 C34.2699115,30.6220511 33.9456038,29.7876035 33.34581,29.1698645 C32.7460162,28.5521255 31.9218472,28.203735 31.0611549,28.2041012 L20.9422519,28.2041012 L19.3040054,27.6248269 C15.1770805,26.1735177 10.5842949,27.2116376 7.48132598,30.2971395 L0,37.740268 L10.4465523,47.932217 L13.3790136,45.0030563 Z" id="Shape"></path>
                        </g>
                    </g>
                </g>
            </g>
        </g>
    </g>
</svg>