<?xml version="1.0" encoding="UTF-8"?>
<svg width="320px" height="286px" viewBox="0 0 320 286" version="1.1" xmlns="http://www.w3.org/2000/svg" xmlns:xlink="http://www.w3.org/1999/xlink">
    <title>Group 10</title>
    <g id="website-update" stroke="none" stroke-width="1" fill="none" fill-rule="evenodd">
        <g id="Android" transform="translate(-20.000000, -2233.000000)">
            <g id="Group-10" transform="translate(20.000000, 2233.000000)">
                <rect id="Rectangle-Copy-4" stroke="#E1F2FE" stroke-width="0.998613037" fill="#FFFFFF" x="0.499306519" y="0.499306519" width="318.907943" height="285.001387" rx="3.95123551"></rect>
                <g id="Group-12" transform="translate(37.026907, 32.000000)">
                    <text id="Once-we-get-your-ass" font-family="SourceSerifPro-Regular, Source Serif Pro" font-size="16" font-weight="normal" line-spacing="24" letter-spacing="-0.250000006" fill="#0774C0">
                        <tspan x="0.492997286" y="140.890936">Once we get your assessment, we </tspan>
                        <tspan x="0.492997286" y="164.890936">respond within 48 hours to </tspan>
                        <tspan x="0.492997286" y="188.890936">schedule a call and let you know if </tspan>
                        <tspan x="0.492997286" y="212.890936">we’re a good fit.</tspan>
                    </text>
                    <text id="Match-making" transform="translate(122.949954, 95.622444) rotate(0.200000) translate(-122.949954, -95.622444) " font-family="SourceSerifPro-Semibold, Source Serif Pro" font-size="24" font-weight="500" line-spacing="47.9334258" fill="#0774C0">
                        <tspan x="0.516580747" y="104.622444">Match-making</tspan>
                    </text>
                    <g id="Group" transform="translate(0.492997, 0.000000)" fill="#1D9DF7" fill-rule="nonzero">
                        <path d="M35.502363,30.0600077 L42.9737558,30.0600077 C43.9422697,30.0600077 44.9107835,30.6151434 45.46422,31.5866309 C45.8792974,32.5581184 45.8792974,33.6683898 45.1875018,34.5010933 C44.7724244,35.056229 44.357347,35.8889326 44.357347,37.1379879 C44.357347,38.3870433 44.9107835,39.6360986 45.8792974,40.4688022 C46.8478113,41.3015057 48.2314026,41.5790736 49.4766347,41.3015057 C51.1369442,41.0239379 52.3821763,39.6360986 52.7972537,37.9706915 C53.2123311,36.3052844 52.5205355,35.195013 51.967099,34.3623094 C51.4136625,33.5296059 51.2753033,32.4193345 51.6903807,31.447847 C52.1054581,30.4763595 53.073972,29.9212238 54.180845,29.9212238 L64.2810612,29.9212238 C64.5577794,29.9212238 64.9728568,30.0600077 65.2495751,30.0600077 L65.2495751,7.43822785 C65.2495751,3.55227793 62.0673152,0.221463711 58.0549005,0.221463711 L35.502363,0.221463711 L35.502363,30.0600077 Z" id="Path"></path>
                        <path d="M0.912581469,30.0600077 L7.27710127,30.0600077 C7.13874214,28.8109524 7.13874214,27.700681 7.41546039,26.4516257 C8.24561515,22.7044597 11.2895159,19.7899972 14.8868532,18.9572937 C17.7923948,18.402158 20.8362956,19.0960776 23.0500416,21.0390526 C25.2637876,22.8432436 26.6473789,25.6189221 26.6473789,28.5333845 C26.6473789,29.0885202 26.6473789,29.504872 26.5090198,30.0600077 L29.9679979,30.0600077 L29.9679979,0.221463711 L7.41546039,0.221463711 C3.54140486,0.221463711 0.220785839,3.413494 0.220785839,7.43822785 L0.220785839,30.3375756 C0.497504091,30.1987917 0.635863217,30.0600077 0.912581469,30.0600077 Z" id="Path"></path>
                        <path d="M64.2810612,35.6113648 L58.1932596,35.6113648 C58.3316188,36.8604201 58.3316188,38.1094754 58.0549005,39.2197468 C57.2247458,42.9669128 54.180845,45.8813753 50.5835077,46.5752949 C49.8917121,46.7140788 49.3382756,46.7140788 48.6464799,46.7140788 C46.4327339,46.7140788 44.2189879,45.8813753 42.4203193,44.493536 C40.2065733,42.689345 38.822982,39.9136664 38.822982,36.999204 C38.822982,36.4440683 38.822982,36.0277165 38.9613411,35.4725808 L35.502363,35.4725808 L35.502363,65.3111248 L58.1932596,65.3111248 C62.0673152,65.3111248 65.3879342,62.1190946 65.3879342,58.0943607 L65.3879342,35.3337969 C64.9728568,35.4725808 64.5577794,35.6113648 64.2810612,35.6113648 Z" id="Path"></path>
                        <path d="M29.9679979,35.6113648 L22.4966051,35.6113648 C21.5280912,35.6113648 20.5595774,35.056229 20.0061409,34.0847416 C19.5910635,33.1132541 19.5910635,32.0029827 20.2828591,31.1702791 C20.6979365,30.6151434 21.1130139,29.7824399 21.1130139,28.5333845 C21.1130139,27.2843292 20.5595774,26.0352739 19.5910635,25.2025703 C18.6225496,24.3698668 17.2389583,24.0922989 15.9937262,24.3698668 C14.3334167,24.6474346 13.0881846,26.0352739 12.6731072,27.700681 C12.2580298,29.3660881 12.9498254,30.4763595 13.5032619,31.3090631 C14.0566984,32.1417666 14.1950576,33.252038 13.7799802,34.2235255 C13.3649028,34.9174451 12.3963889,35.6113648 11.2895159,35.6113648 L0.912581469,35.6113648 C0.635863217,35.6113648 0.497504091,35.6113648 0.220785839,35.4725808 L0.220785839,58.3719286 C0.220785839,62.2578785 3.40304574,65.5886927 7.41546039,65.5886927 L29.9679979,65.5886927 L29.9679979,35.6113648 Z" id="Path"></path>
                    </g>
                </g>
            </g>
        </g>
    </g>
</svg>