<?xml version="1.0" encoding="UTF-8"?>
<svg width="320px" height="190px" viewBox="0 0 320 190" version="1.1" xmlns="http://www.w3.org/2000/svg" xmlns:xlink="http://www.w3.org/1999/xlink">
    <title>Group 5</title>
    <defs>
        <rect id="path-1" x="0" y="0" width="320" height="190"></rect>
    </defs>
    <g id="website-update" stroke="none" stroke-width="1" fill="none" fill-rule="evenodd">
        <g id="Android" transform="translate(-20.000000, -1276.000000)">
            <g id="Group-3" transform="translate(20.000000, 1012.000000)">
                <g id="Group-5" transform="translate(0.000000, 264.000000)">
                    <mask id="mask-2" fill="white">
                        <use xlink:href="#path-1"></use>
                    </mask>
                    <g id="Rectangle"></g>
                    <g id="3-SCENE" mask="url(#mask-2)">
                        <g id="CHARACTER_x27_S_LEGS" transform="translate(99.498180, 142.148220)">
                            <g id="CHAIR" transform="translate(16.712464, 25.789045)" stroke-linecap="round" stroke-width="0.97065195">
                                <path d="M56.7674024,9.1523673 L56.7674024,57.986941 C56.7674024,73.0214053 64.5738823,86.9804115 77.3941014,94.8707618 L95.4369655,105.976512" id="Path" stroke="#66B0F0" stroke-linejoin="round"></path>
                                <path d="M46.99281,9.1523673 L46.99281,57.986941 C46.99281,73.0214053 39.1863301,86.9804115 26.366111,94.8707618 L8.32324687,105.976512" id="Path" stroke="#66B0F0" stroke-linejoin="round"></path>
                                <path d="M40.4287698,9.1523673 L62.4298491,9.1523673 C64.3759715,9.1523673 65.9482625,7.5830765 65.9482625,5.64066762 L65.9482625,0.0987665536 L36.9103563,0.0987665536 L36.9103563,5.64066762 C36.9103563,7.5830765 38.4826474,9.1523673 40.4287698,9.1523673 Z" id="Path" stroke="#022945"></path>
                            </g>
                            <g id="RIGHT_LEG" transform="translate(53.216004, 1.207147)" fill="#1D9DF7">
                                <path d="M20.0109766,20.3020138 L9.89553789,123.600855 L41.0664823,123.600855 L66.6959254,30.6505538 C71.4127985,15.4844008 61.2643746,0.0548703076 45.4644991,0.0218545554 L43.2654907,0.0218545554 C31.5667659,-0.0109740615 21.6492379,8.64756047 20.0109766,20.3020138 Z" id="Path"></path>
                            </g>
                            <g id="LEFT_LEG">
                                <path d="M82.0889844,124.808002 L108.092259,109.005353 L49.9504763,11.7861421 C42.5947931,0.1426628 23.9252116,-3.45682938 12.1495215,3.69825873 L12.1495215,3.69825873 C-1.42935547,11.950753 -4.09015566,30.507891 6.61901535,42.2281887 L82.0889844,124.808002 Z" id="Path" fill="#1D9DF7"></path>
                                <path d="M82.1989348,124.369039 L108.31216,108.785872 L50.0604267,11.7861421 C42.7047435,0.1426628 24.035162,-3.45682938 12.2594719,3.69825873 L12.2594719,3.69825873 C-1.31940505,11.950753 -3.98020524,30.507891 6.72896577,42.2281887 L82.1989348,124.369039 Z" id="Path" stroke="#FFFFFF" stroke-width="0.97065195"></path>
                            </g>
                        </g>
                        <g id="TABLE" transform="translate(13.348836, 133.332826)">
                            <path d="M294.49738,34.7602012 C297.367682,34.7602012 299.699115,32.4348106 299.699115,29.5719477 L299.699115,9.71837748 C299.699115,6.85551458 297.367682,4.53012404 294.49738,4.53012404 L5.22372962,4.53012404 C2.35342766,4.53012404 0.021994651,6.85551458 0.021994651,9.71837748 L0.021994651,29.5719477 C0.021994651,32.4348106 2.35342766,34.7602012 5.22372962,34.7602012 L294.49738,34.7602012 Z" id="Path" fill="#022945"></path>
                            <path d="M294.409401,0.03290647 L5.3007109,0.03290647 C2.43040894,0.03290647 0.0989759296,2.35829702 0.0989759296,5.22115991 L0.0989759296,25.0747301 C0.0989759296,27.937593 2.43040894,30.2629836 5.3007109,30.2629836 L294.409401,30.2629836 C297.279703,30.2629836 299.611136,27.937593 299.611136,25.0747301 L299.611136,5.22115991 C299.611136,2.35829702 297.279703,0.03290647 294.409401,0.03290647 Z" id="Path" stroke="#022945" stroke-width="0.97065195" fill="#FFFFFF" fill-rule="nonzero"></path>
                            <line x1="279.354063" y1="30.2849212" x2="279.354063" y2="154.079061" id="Path" stroke="#022945" stroke-width="0.97065195" stroke-linecap="round"></line>
                            <line x1="26.9764395" y1="30.2849212" x2="26.9764395" y2="154.079061" id="Path" stroke="#022945" stroke-width="0.97065195" stroke-linecap="round"></line>
                        </g>
                        <g id="BOOKS" transform="translate(243.395985, 113.970444)">
                            <path d="M50.7400741,30.8772184 L50.7400741,30.8772184 C50.7400741,32.5121528 49.4302978,33.8398513 47.8233453,33.8398513 L2.99377444,33.8398513 C1.37581546,33.8398513 0.0770456657,32.5121528 0.0770456657,30.8772184 L0.0770456657,30.8772184 C0.0770456657,29.2422839 1.38682198,27.9145855 2.99377444,27.9145855 L47.8233453,27.9145855 C49.4302978,27.9145855 50.7400741,29.2422839 50.7400741,30.8772184 Z" id="Path" fill="#1D9DF7"></path>
                            <g id="Group" transform="translate(9.135415, 0.000000)">
                                <path d="M22.6844453,0.0219454288 L4.33657032,0.0219454288 L4.33657032,12.7502942 L39.7775765,12.7502942 L39.7775765,12.7502942 C37.5322457,5.20106663 30.5761227,0.0219454288 22.6844453,0.0219454288 Z" id="Path" stroke="#F7771D" stroke-width="0.97065195" fill="#FFFFFF" fill-rule="nonzero"></path>
                                <polygon id="Path" fill="#FF8833" points="7.63852742 0.0219454288 7.63852742 12.7502942 0.0440260947 12.7612669 0.0440260947 0.0219454288"></polygon>
                                <path d="M67.8772315,12.4979217 L39.7775765,12.7502942 C39.7775765,12.7502942 46.8107452,3.24792347 66.1161877,5.76067507 C66.1161877,5.76067507 51.0152372,2.62247875 35.6941563,5.76067507" id="Path" stroke="#F7771D" stroke-width="0.97065195" fill="#FFFFFF" fill-rule="nonzero"></path>
                                <path d="M39.7775765,12.7502942 C39.7775765,12.7502942 52.0938765,6.00207479 67.1067748,9.27194368" id="Path" stroke="#F7771D" stroke-width="0.97065195" fill="#FFFFFF" fill-rule="nonzero"></path>
                            </g>
                            <g id="Group" transform="translate(0.660391, 18.653615)">
                                <path d="M51.389459,4.50978563 C51.389459,5.7058115 51.5765699,6.79211022 51.873746,7.59311838 L38.3907545,7.59311838 C37.6973436,7.59311838 37.1250043,6.98961908 37.1250043,6.25444722 L37.1250043,2.77609675 C37.1250043,2.02995217 37.686337,1.43742559 38.3907545,1.43742559 L51.873746,1.43742559 C51.5765699,2.22746103 51.389459,3.31375975 51.389459,4.50978563 Z" id="Path" fill="#FF8833"></path>
                                <path d="M37.1360109,2.77609675 L37.1360109,6.25444722 C37.1360109,7.0005918 37.7413697,7.59311838 38.4788067,7.59311838 L52.9633919,7.59311838 L52.9633919,7.84549081 C52.9633919,8.45996282 52.4680983,8.95373497 51.851733,8.95373497 L1.18870456,8.95373497 C0.572339231,8.95373497 0.0770456657,8.45996282 0.0770456657,7.84549081 L0.0770456657,1.17408044 C0.0770456657,0.559608435 0.572339231,0.0658362865 1.18870456,0.0658362865 L51.851733,0.0658362865 C52.4680983,0.0658362865 52.9633919,0.559608435 52.9633919,1.17408044 L52.9633919,1.42645287 L38.4788067,1.42645287 C37.7413697,1.43742559 37.1360109,2.02995217 37.1360109,2.77609675 Z" id="Path" stroke="#F7771D" stroke-width="0.97065195" fill="#FFFFFF" fill-rule="nonzero"></path>
                                <path d="M37.1360109,2.77609675 L37.1360109,6.25444722 C37.1360109,7.0005918 37.7413697,7.59311838 38.4788067,7.59311838 L52.9633919,7.59311838 L52.9633919,7.84549081 C52.9633919,8.45996282 52.4680983,8.95373497 51.851733,8.95373497 L1.18870456,8.95373497 C0.572339231,8.95373497 0.0770456657,8.45996282 0.0770456657,7.84549081 L0.0770456657,1.17408044 C0.0770456657,0.559608435 0.572339231,0.0658362865 1.18870456,0.0658362865 L51.851733,0.0658362865 C52.4680983,0.0658362865 52.9633919,0.559608435 52.9633919,1.17408044 L52.9633919,1.42645287 L38.4788067,1.42645287 C37.7413697,1.43742559 37.1360109,2.02995217 37.1360109,2.77609675 Z" id="Path" stroke="#F7771D" stroke-width="0.97065195" fill="#FFFFFF" fill-rule="nonzero"></path>
                            </g>
                            <g id="Group" transform="translate(6.493849, 33.905688)">
                                <path d="M12.4263652,2.31524274 C11.8980521,2.80901489 11.5678564,3.70877747 11.5678564,4.46589477 C11.5678564,5.96915664 12.8886392,7.51630938 14.5176047,7.51630938 L55.109664,7.51630938 L55.109664,7.51630938 C55.109664,8.2185631 54.5373248,8.80011696 53.8219007,8.80011696 L4.83186389,8.80011696 C3.52208757,8.80011696 2.33338302,8.30634481 1.47487417,7.51630938 C0.616365325,6.72627394 0.0770456657,5.6290025 0.0770456657,4.4110312 C0.0770456657,1.98606131 2.20130473,0.0219454288 4.83186389,0.0219454288 L53.8219007,0.0219454288 C54.5263182,0.0219454288 55.109664,0.592526579 55.109664,1.30575302 L55.109664,1.53618002 L14.5176047,1.53618002 C13.6921154,1.5252073 12.9546784,1.83244331 12.4263652,2.31524274 Z" id="Path" fill="#FF8833"></path>
                                <path d="M52.1709222,1.5252073 L52.1709222,7.40658223 L55.0986575,7.40658223 L55.0986575,7.90035438 L14.3745199,7.90035438 C13.9232524,7.90035438 13.4829915,7.81257267 13.0867566,7.64798195 C13.0867566,7.64798195 13.0867566,7.64798195 13.0867566,7.64798195 C12.6575022,7.47241852 12.2612674,7.22004609 11.9420782,6.89086465 C11.3147063,6.26541993 10.929478,5.40954821 10.929478,4.46589477 C10.929478,2.56761517 12.4703913,1.03143516 14.3745199,1.03143516 L55.0986575,1.03143516 L55.0986575,1.5252073 L52.1709222,1.5252073 Z" id="Path" fill="#FE5244" fill-rule="nonzero"></path>
                                <path d="M53.3045941,1.5252073 L53.3045941,7.40658223 L14.5176047,7.40658223 C12.8886392,7.40658223 11.5678564,6.0898565 11.5678564,4.46589477 C11.5678564,3.6539139 11.8980521,2.91874204 12.4263652,2.38107903 C12.9546784,1.85438874 13.6921154,1.5252073 14.5065982,1.5252073 L53.3045941,1.5252073 Z" id="Path" fill="#FFFFFF" fill-rule="nonzero"></path>
                                <line x1="53.3045941" y1="1.5252073" x2="53.3045941" y2="7.40658223" id="Path" stroke="#F7771D" stroke-width="0.808876625"></line>
                                <path d="M19.9218078,5.69483878 L19.9218078,10.5996421 L16.520792,10.5996421 L16.520792,6.3202835 C16.520792,5.29982106 15.6953027,4.46589477 14.6606895,4.46589477 L13.1417893,4.46589477 L13.1417893,3.84045005 L18.0617053,3.84045005 C19.0963186,3.84045005 19.9218078,4.67437634 19.9218078,5.69483878 Z" id="Path" fill="#FF8833"></path>
                            </g>
                            <g id="Group" transform="translate(1.210718, 12.289440)">
                                <path d="M60.5468867,0.735171866 L2.71861135,0.735171866 C1.22172413,0.735171866 0.0110065237,1.94217045 0.0110065237,3.43445961 L0.0110065237,3.43445961 C0.0220130473,4.91577606 1.22172413,6.12277465 2.71861135,6.12277465 L60.5468867,6.12277465 C62.0437739,6.12277465 63.2544915,4.91577606 63.2544915,3.4234869 L63.2544915,3.4234869 C63.243485,1.94217045 62.0327674,0.735171866 60.5468867,0.735171866 Z" id="Path" fill="#1D9DF7"></path>
                                <g transform="translate(3.742218, 0.000000)" fill="#FFFFFF" fill-rule="nonzero" id="Path">
                                    <path d="M43.6848924,6.13374736 L43.1015467,6.13374736 C43.1675858,6.30931079 43.3326837,6.74821937 43.695899,6.74821937 C43.9160294,6.74821937 44.9946687,6.58362865 44.9946687,3.43445961 C44.9946687,2.31524274 44.8625905,1.45937102 44.5984339,0.877817153 C44.2792447,0.186536145 43.8609968,0.109727144 43.7069055,0.109727144 C43.3326837,0.109727144 43.1675858,0.559608435 43.1015467,0.735171866 L43.6848924,0.735171866 C43.7069055,0.691281008 43.7289185,0.669335579 43.7399251,0.658362865 C43.9380425,0.713226437 44.4663556,1.26186216 44.4663556,3.43445961 C44.4663556,5.60705707 43.9380425,6.14472007 43.7399251,6.21055636 C43.717912,6.18861093 43.695899,6.1666655 43.6848924,6.13374736 Z"></path>
                                    <path d="M48.4617237,6.13374736 L47.878378,6.13374736 C47.9444171,6.30931079 48.1095149,6.74821937 48.4727302,6.74821937 C48.6928607,6.74821937 49.7715,6.58362865 49.7715,3.43445961 C49.7715,2.31524274 49.6394217,1.45937102 49.3752652,0.877817153 C49.056076,0.186536145 48.6378281,0.109727144 48.4837368,0.109727144 C48.1095149,0.109727144 47.9444171,0.559608435 47.878378,0.735171866 L48.4617237,0.735171866 C48.4837368,0.691281008 48.5057498,0.669335579 48.5167563,0.658362865 C48.7148737,0.713226437 49.2431869,1.26186216 49.2431869,3.43445961 C49.2431869,5.60705707 48.7148737,6.14472007 48.5167563,6.21055636 C48.5057498,6.18861093 48.4837368,6.1666655 48.4617237,6.13374736 Z"></path>
                                    <path d="M53.2495615,6.13374736 L52.6662157,6.13374736 C52.7322549,6.30931079 52.8973527,6.74821937 53.260568,6.74821937 C53.5687507,6.74821937 54.5593378,6.50681965 54.5593378,3.43445961 C54.5593378,0.351126861 53.5687507,0.120699859 53.260568,0.120699859 C52.8863462,0.120699859 52.7212484,0.57058115 52.6552092,0.74614458 L53.238555,0.74614458 C53.260568,0.702253723 53.2825811,0.680308294 53.2935876,0.669335579 C53.5137181,0.724199152 54.0200182,1.2947803 54.0200182,3.44543233 C54.0200182,4.76215806 53.8329073,5.44246635 53.6678094,5.79359321 C53.5357311,6.07888379 53.3926463,6.19958365 53.2935876,6.22152908 C53.2825811,6.18861093 53.2715745,6.1666655 53.2495615,6.13374736 Z"></path>
                                    <path d="M29.321379,6.13374736 L28.7380333,6.13374736 C28.8040724,6.30931079 28.9691703,6.74821937 29.3323856,6.74821937 C29.552516,6.74821937 30.6311554,6.58362865 30.6311554,3.43445961 C30.6311554,0.351126861 29.6405682,0.120699859 29.3323856,0.120699859 C28.9581638,0.120699859 28.7930659,0.57058115 28.7270268,0.74614458 L29.3103725,0.74614458 C29.3323856,0.702253723 29.3543986,0.680308294 29.3654051,0.669335579 C29.5855356,0.724199152 30.0918357,1.2947803 30.0918357,3.44543233 C30.0918357,5.61802978 29.5635226,6.15569279 29.3654051,6.22152908 C29.3654051,6.18861093 29.3433921,6.1666655 29.321379,6.13374736 Z"></path>
                                    <path d="M34.1092168,6.13374736 L33.5258711,6.13374736 C33.5919102,6.30931079 33.7570081,6.74821937 34.1202234,6.74821937 C34.3293473,6.74821937 34.7145756,6.66043765 35.0117518,6.04596564 C35.2759084,5.48635721 35.4189932,4.60854006 35.4189932,3.43445961 C35.4189932,2.26037917 35.2869149,1.38256202 35.0117518,0.822953581 C34.7145756,0.208481574 34.3293473,0.120699859 34.1202234,0.120699859 C33.7460016,0.120699859 33.5809037,0.57058115 33.5148646,0.74614458 L34.0982103,0.74614458 C34.1202234,0.702253723 34.1422364,0.680308294 34.1532429,0.669335579 C34.2853212,0.691281008 34.4173995,0.833926296 34.5274647,1.0643533 C34.6815561,1.39353473 34.8796735,2.07384303 34.8796735,3.44543233 C34.8796735,4.80604892 34.6925626,5.48635721 34.5274647,5.82651136 C34.4173995,6.05693836 34.2743147,6.19958365 34.1532429,6.22152908 C34.1422364,6.18861093 34.1312299,6.1666655 34.1092168,6.13374736 Z"></path>
                                    <path d="M38.8970546,6.13374736 L38.3137089,6.13374736 C38.379748,6.30931079 38.5448459,6.74821937 38.9080612,6.74821937 C39.2162438,6.74821937 40.206831,6.50681965 40.206831,3.43445961 C40.206831,0.27431786 39.1281916,0.120699859 38.9080612,0.120699859 C38.5338394,0.120699859 38.3687415,0.57058115 38.3027024,0.74614458 L38.8860481,0.74614458 C38.9080612,0.702253723 38.9300742,0.680308294 38.9410807,0.669335579 C39.1391982,0.724199152 39.6675113,1.27283487 39.6675113,3.44543233 C39.6675113,5.59608435 39.1612112,6.1666655 38.9410807,6.22152908 C38.9300742,6.18861093 38.9190677,6.1666655 38.8970546,6.13374736 Z"></path>
                                    <path d="M14.9688722,6.13374736 L14.3855264,6.13374736 C14.4515656,6.30931079 14.6166634,6.74821937 14.9798787,6.74821937 C15.1449766,6.74821937 15.5632245,6.67141037 15.8714071,5.98012936 C16.1355637,5.40954821 16.267642,4.54270377 16.267642,3.4234869 C16.267642,2.39205174 16.1245572,1.5252073 15.8714071,0.932680726 C15.6402701,0.405990433 15.3100744,0.0987544298 14.9688722,0.0987544298 C14.5946504,0.0987544298 14.4295525,0.548635721 14.3635134,0.724199152 L14.9468591,0.724199152 C14.9688722,0.691281008 14.9798787,0.658362865 14.9908852,0.647390151 C15.0569244,0.680308294 15.2110157,0.801008153 15.365107,1.15213501 C15.5302049,1.51423459 15.7173158,2.2055156 15.7173158,3.41251418 C15.7173158,5.58511164 15.1890027,6.12277465 14.9908852,6.18861093 C15.0018918,6.18861093 14.9908852,6.1666655 14.9688722,6.13374736 Z"></path>
                                    <path d="M19.75671,6.13374736 L19.1733642,6.13374736 C19.2394034,6.30931079 19.4045012,6.74821937 19.7677165,6.74821937 C19.9328144,6.74821937 20.3510623,6.67141037 20.6592449,5.98012936 C20.9234015,5.40954821 21.0554798,4.54270377 21.0554798,3.4234869 C21.0554798,0.340154147 20.0648926,0.109727144 19.75671,0.109727144 C19.3824882,0.109727144 19.2173903,0.559608435 19.1513512,0.735171866 L19.7346969,0.735171866 C19.75671,0.691281008 19.778723,0.669335579 19.7897296,0.658362865 C20.00986,0.713226437 20.5161601,1.28380759 20.5161601,3.43445961 C20.5161601,5.60705707 19.987847,6.14472007 19.7897296,6.21055636 C19.7897296,6.18861093 19.778723,6.1666655 19.75671,6.13374736 Z"></path>
                                    <path d="M24.5445478,6.13374736 L23.961202,6.13374736 C24.0272412,6.30931079 24.192339,6.74821937 24.5555543,6.74821937 C24.863737,6.74821937 25.8543241,6.50681965 25.8543241,3.43445961 C25.8543241,2.26037917 25.7222458,1.38256202 25.4470827,0.822953581 C25.1499066,0.208481574 24.7646783,0.120699859 24.5555543,0.120699859 C24.1813325,0.120699859 24.0162346,0.57058115 23.9501955,0.74614458 L24.5335413,0.74614458 C24.5555543,0.702253723 24.5775673,0.680308294 24.5885739,0.669335579 C24.7206522,0.691281008 24.8527304,0.833926296 24.9627957,1.0643533 C25.116887,1.39353473 25.3150044,2.07384303 25.3150044,3.44543233 C25.3150044,5.59608435 24.8087043,6.1666655 24.5885739,6.22152908 C24.5775673,6.18861093 24.5555543,6.1666655 24.5445478,6.13374736 Z"></path>
                                    <path d="M0.616365325,6.13374736 L0.033019571,6.13374736 C0.099058713,6.30931079 0.264156568,6.74821937 0.627371849,6.74821937 C0.968574083,6.74821937 1.28776327,6.44098336 1.52990679,5.91429307 C1.79406336,5.32176649 1.92614164,4.46589477 1.92614164,3.4234869 C1.92614164,2.2055156 1.70601117,1.43742559 1.52990679,1.00948973 C1.28776327,0.438908577 0.957567559,0.109727144 0.627371849,0.109727144 C0.253150044,0.109727144 0.0880521893,0.559608435 0.0220130473,0.735171866 L0.605358802,0.735171866 C0.627371849,0.702253723 0.638378373,0.680308294 0.649384896,0.658362865 C0.726430562,0.702253723 0.891528417,0.855871725 1.04561975,1.27283487 C1.19971108,1.65687988 1.37581546,2.33718817 1.37581546,3.4234869 C1.37581546,4.6414582 1.18870456,5.32176649 1.0236067,5.69483878 C0.86951537,6.04596564 0.715424038,6.1666655 0.649384896,6.19958365 C0.649384896,6.18861093 0.627371849,6.1666655 0.616365325,6.13374736 Z"></path>
                                    <path d="M5.3931966,6.13374736 L4.80985084,6.13374736 C4.87588998,6.30931079 5.04098784,6.74821937 5.40420312,6.74821937 C5.74540535,6.74821937 6.06459454,6.44098336 6.30673806,5.91429307 C6.57089463,5.32176649 6.70297291,4.46589477 6.70297291,3.4234869 C6.70297291,1.27283487 6.03157497,0.109727144 5.40420312,0.109727144 C5.02998132,0.109727144 4.86488346,0.559608435 4.79884432,0.735171866 L5.38219007,0.735171866 C5.40420312,0.702253723 5.41520964,0.680308294 5.42621617,0.658362865 C5.50326183,0.702253723 5.65735316,0.855871725 5.82245102,1.25088944 C5.97654235,1.62396173 6.15264673,2.31524274 6.15264673,3.4234869 C6.15264673,4.6414582 5.96553583,5.32176649 5.80043797,5.69483878 C5.64634664,6.04596564 5.49225531,6.1666655 5.42621617,6.19958365 C5.42621617,6.18861093 5.41520964,6.1666655 5.3931966,6.13374736 Z"></path>
                                    <path d="M10.1810344,6.13374736 L9.59768864,6.13374736 C9.66372778,6.30931079 9.82882563,6.74821937 10.1920409,6.74821937 C10.3571388,6.74821937 10.7643801,6.67141037 11.0945759,5.9362385 C11.3587324,5.34371192 11.4908107,4.49881291 11.4908107,3.43445961 C11.4908107,2.40302446 11.3477259,1.53618002 11.0945759,0.94365344 C10.8634389,0.416963148 10.5332431,0.109727144 10.1920409,0.109727144 C9.81781911,0.109727144 9.65272126,0.559608435 9.58668211,0.735171866 L10.1700279,0.735171866 C10.1920409,0.702253723 10.2030474,0.669335579 10.214054,0.658362865 C10.2800931,0.691281008 10.4341844,0.811980867 10.5882758,1.16310773 C10.7533736,1.5252073 10.9404845,2.21648831 10.9404845,3.4234869 C10.9404845,4.66340363 10.7533736,5.34371192 10.5882758,5.7058115 C10.4341844,6.04596564 10.2800931,6.1666655 10.214054,6.18861093 C10.214054,6.18861093 10.2030474,6.1666655 10.1810344,6.13374736 Z"></path>
                                </g>
                            </g>
                        </g>
                        <g id="CLOCK" transform="translate(13.440746, 0.000000)">
                            <path d="M46.21155,49.879489 L7.68177728,49.879489 C5.45087487,49.879489 3.64856947,48.0808443 3.64856947,45.8544731 L3.64856947,7.40295846 C3.64856947,5.17658725 5.45087487,3.37794253 7.68177728,3.37794253 L46.21155,3.37794253 C48.4424524,3.37794253 50.2447578,5.17658725 50.2447578,7.40295846 L50.2447578,45.8544731 C50.2447578,48.0808443 48.4314628,49.879489 46.21155,49.879489 Z" id="Path" fill="#FDD6BA"></path>
                            <path d="M43.3981953,47.3021627 L4.11013548,47.3021627 C1.87923307,47.3021627 0.0769276695,45.503518 0.0769276695,43.2771468 L0.0769276695,4.06888532 C0.0769276695,1.84251411 1.87923307,0.0438693835 4.11013548,0.0438693835 L43.3981953,0.0438693835 C45.6290977,0.0438693835 47.4314031,1.84251411 47.4314031,4.06888532 L47.4314031,43.2771468 C47.4314031,45.503518 45.6290977,47.3021627 43.3981953,47.3021627 Z" id="Path" stroke="#F7771D" stroke-width="0.97065195" fill="#FFFFFF" fill-rule="nonzero"></path>
                            <ellipse id="Oval" stroke="#F7771D" stroke-width="0.97065195" fill="#FFFFFF" fill-rule="nonzero" cx="23.7596602" cy="23.6675324" rx="18.1329507" ry="18.0961207"></ellipse>
                            <polyline id="Path" stroke="#F7771D" stroke-width="0.97065195" fill="#FFFFFF" fill-rule="nonzero" points="13.5612492 15.9026515 23.7596602 23.6675324 21.2540161 16.0013576"></polyline>
                        </g>
                        <g id="PAPER" transform="translate(185.805306, 147.972676)">
                            <polygon id="Path" fill="#FDD6BA" points="44.1213771 15.6527674 13.0473529 15.6527674 0 0.0328609533 30.3265769 0.0328609533"></polygon>
                            <g id="Group" transform="translate(20.334965, 2.957486)" fill="#FFFFFF" fill-rule="nonzero" stroke="#F7771D" stroke-width="0.97065195">
                                <path d="M40.6149697,13.5058518 L40.6149697,23.1450648 L15.9931748,23.2436829 C12.8385074,23.2546013 10.277401,20.7133542 10.277401,17.5696564 L10.277401,14.5793096 C10.277401,12.5857451 9.54094553,10.6688562 8.2219208,9.19011328 L0.0989268546,0.0985828599 L30.4255037,0.0985828599 L38.1857659,7.73327768 C39.7466118,9.25583518 40.6149697,11.3260752 40.6149697,13.5058518 Z" id="Path"></path>
                                <path d="M51.6947775,19.7494329 C50.6505495,21.8306266 48.4961425,23.2546013 46.0009874,23.2546013 L15.6634186,23.2546013 C18.1475819,23.2546013 20.3019889,21.8306266 21.3572087,19.7494329 L51.6947775,19.7494329 Z" id="Path"></path>
                            </g>
                        </g>
                        <g id="CHARACTER" transform="translate(69.677253, 22.353319)">
                            <g id="HOODY" transform="translate(0.000000, 27.964496)">
                                <path d="M169.332919,60.2278473 L150.818659,27.7890322 C146.398984,20.0357387 138.142328,15.2543583 129.20403,15.2543583 L59.8635077,15.2543583 L62.2932295,10.0233526 C62.0953336,10.4510449 61.050883,10.5607096 59.4567217,10.3413802 C57.0160056,10.0123861 53.2999605,8.94863863 49.3420427,7.19400361 C47.0772341,6.19605494 45.0213157,5.15424039 43.3172122,4.18919113 C40.0959068,2.35779082 38.1499305,0.756686355 38.4687628,0.0438658757 L3.06738634,57.9577882 C-4.70552457,69.2642177 3.40820705,84.6282473 17.1509774,84.6282473 C18.9980057,84.6282473 20.8230456,84.332146 22.5601318,83.7509231 C24.297218,83.1697003 25.9353562,82.3143157 27.4085812,81.2067023 L54.5972781,60.8200366 C56.2354163,59.5917921 58.5771844,60.5458749 58.9070108,62.5527387 L62.4581427,84.6282473 L155.095409,84.6282473 C167.661798,84.6392071 175.544651,71.1065844 169.332919,60.2278473 Z M128.126597,62.7611016 L131.095035,56.0276897 C131.600769,54.8762105 133.227913,54.8542775 133.755635,55.9947903 L136.976941,62.7720681 L128.126597,62.7720681 L128.126597,62.7611016 Z" id="Shape" fill="#1D9DF7"></path>
                                <path d="M70.9017008,15.2324253 C70.9017008,9.56276089 82.6325296,2.55518726 96.8590455,0.767652824 C118.198819,-1.89719912 122.81639,9.56276089 122.81639,15.2324253" id="Path" stroke="#1D9DF7" stroke-width="0.97065195"></path>
                                <path d="M120.353686,15.3311235 C120.353686,20.4085987 96.8590455,30.8048112 96.8590455,30.8048112 C96.8590455,30.8048112 73.3644053,20.4085987 73.3644053,15.3311235 C73.3644053,10.2536484 84.534529,4.3756211 97.4087563,2.80741604 C115.934011,0.548323446 120.353686,10.242682 120.353686,15.3311235 Z" id="Path" fill="#1D9DF7"></path>
                                <path d="M120.353686,15.3311235 C120.353686,20.4085987 96.8590455,30.8048112 96.8590455,30.8048112 C96.8590455,30.8048112 73.3644053,20.4085987 73.3644053,15.3311235 C73.3644053,15.3091906 73.3644053,15.2872577 73.3644053,15.2653247 L120.353686,15.2653247 C120.353686,15.2762912 120.353686,15.2982241 120.353686,15.3311235 Z" id="Path" fill="#FFFFFF" fill-rule="nonzero"></path>
                                <path d="M122.805396,15.2214589 C122.805396,20.8253245 96.8590455,33.5683613 96.8590455,33.5683613 C96.8590455,33.5683613 70.912695,20.8362909 70.912695,15.2214589" id="Path" stroke="#FFFFFF" stroke-width="0.97065195"></path>
                                <path d="M116.879513,84.3869783 C118.33075,84.3869783 119.507131,79.5946314 119.507131,73.6946711 C119.507131,67.7947108 118.33075,63.0023639 116.879513,63.0023639" id="Path" stroke="#FFFFFF" stroke-width="0.808876625" stroke-linecap="round"></path>
                                <line x1="61.7545129" y1="12.1727805" x2="41.4042185" y2="52.759682" id="Path" stroke="#FFFFFF" stroke-width="0.808876625"></line>
                                <line x1="57.3348379" y1="51.8275321" x2="60.6990681" y2="73.9140005" id="Path" stroke="#FFFFFF" stroke-width="0.808876625" stroke-linecap="round"></line>
                                <g id="Group" transform="translate(95.429797, 32.570413)" stroke="#FFFFFF" stroke-width="0.808876625">
                                    <g transform="translate(0.329826, 3.509270)" id="Path" stroke-linecap="round">
                                        <line x1="0" y1="0.0877317513" x2="2.19884326" y2="0.0877317513"></line>
                                        <line x1="0" y1="2.69775135" x2="2.19884326" y2="2.69775135"></line>
                                        <line x1="0" y1="5.29680449" x2="2.19884326" y2="5.29680449"></line>
                                        <line x1="0" y1="7.89585762" x2="2.19884326" y2="7.89585762"></line>
                                        <line x1="0" y1="10.4949108" x2="2.19884326" y2="10.4949108"></line>
                                        <line x1="0" y1="13.1049304" x2="2.19884326" y2="13.1049304"></line>
                                        <line x1="0" y1="13.2255615" x2="2.19884326" y2="13.2255615"></line>
                                        <line x1="0" y1="15.8246146" x2="2.19884326" y2="15.8246146"></line>
                                        <line x1="0" y1="18.4236678" x2="2.19884326" y2="18.4236678"></line>
                                        <line x1="0" y1="20.9020898" x2="2.19884326" y2="20.9020898"></line>
                                        <line x1="0" y1="23.5121094" x2="2.19884326" y2="23.5121094"></line>
                                        <line x1="0" y1="26.1111625" x2="2.19884326" y2="26.1111625"></line>
                                        <line x1="0" y1="28.7102156" x2="2.19884326" y2="28.7102156"></line>
                                        <line x1="0" y1="31.3092688" x2="2.19884326" y2="31.3092688"></line>
                                        <line x1="0" y1="33.9192884" x2="2.19884326" y2="33.9192884"></line>
                                        <line x1="0" y1="36.5183415" x2="2.19884326" y2="36.5183415"></line>
                                        <line x1="0" y1="39.1173946" x2="2.19884326" y2="39.1173946"></line>
                                        <line x1="0" y1="41.7164478" x2="2.19884326" y2="41.7164478"></line>
                                        <line x1="0" y1="41.8480454" x2="2.19884326" y2="41.8480454"></line>
                                        <line x1="0" y1="44.4470985" x2="2.19884326" y2="44.4470985"></line>
                                        <line x1="0" y1="47.0461516" x2="2.19884326" y2="47.0461516"></line>
                                    </g>
                                    <line x1="0.0989479465" y1="0.0548323446" x2="0.0989479465" y2="41.3435878" id="Path"></line>
                                </g>
                                <line x1="115.604184" y1="62.980431" x2="142.045274" y2="62.980431" id="Path" stroke="#FFFFFF" stroke-width="0.808876625" stroke-linecap="round"></line>
                            </g>
                            <g id="BOOK" transform="translate(41.997906, 102.317155)">
                                <polygon id="Path" stroke="#66B0F0" stroke-width="0.97065195" fill="#FFFFFF" fill-rule="nonzero" points="0.0329826488 31.7808269 84.4575695 31.7808269 76.5197453 10.3633131 9.1801706 10.3633131"></polygon>
                                <path d="M0.0329826488,31.7808269 C0.0329826488,28.7540815 8.08074897,23.2818135 21.1528721,22.5360936 C35.1485095,21.7465079 42.4816517,30.519683 42.2727616,31.7808269 L0.0329826488,31.7808269 Z" id="Path" fill="#1D9DF7" fill-rule="nonzero"></path>
                                <path d="M42.2617674,31.7808269 C42.2617674,31.7808269 38.5457223,14.453806 5.92588258,17.985009 L12.9731752,0.888283982 C12.9731752,0.888283982 39.6891208,-3.95889528 42.2727616,10.3633131 L42.2617674,31.7808269 Z" id="Path" stroke="#66B0F0" stroke-width="0.97065195" fill="#FFFFFF" fill-rule="nonzero" stroke-linejoin="round"></path>
                                <path d="M83.9628298,30.4319512 C82.0168535,27.7451664 74.518798,24.9377503 63.3486742,24.3016951 C50.067661,23.5450088 42.7894898,29.8397619 42.2617674,31.5505311 L42.2617674,10.3633131 C42.2617674,10.3633131 51.7387818,-0.427692288 76.5197453,10.3633131 L83.9628298,30.4319512 Z" id="Path" stroke="#66B0F0" stroke-width="0.97065195" fill="#FFFFFF" fill-rule="nonzero" stroke-linejoin="round"></path>
                                <path d="M72.5618275,21.5710444 C69.791285,20.8691903 66.438049,20.3427998 62.6120617,20.1234705 C60.7100623,20.0138058 58.9399935,20.0686381 57.3128495,20.2441016 C53.2779721,20.6937268 50.1006436,21.9000384 47.835835,23.1940818" id="Path" stroke="#1D9DF7" stroke-width="0.97065195" stroke-linecap="round" stroke-linejoin="round"></path>
                                <path d="M71.5833422,17.9192102 C68.9337361,17.2941215 65.778396,16.8225633 62.2162699,16.6142004 C60.3142705,16.5045357 58.5442017,16.5593681 56.9170577,16.7348316 C52.8821803,17.1844568 49.7048518,18.3907684 47.4400433,19.6848117" id="Path" stroke="#1D9DF7" stroke-width="0.97065195" stroke-linecap="round" stroke-linejoin="round"></path>
                                <path d="M70.6818165,14.2783425 C68.1531467,13.7190526 65.217691,13.3023268 61.9194261,13.1049304 C60.0174267,12.9952657 58.2473579,13.050098 56.6202139,13.2255615 C52.5853365,13.6751867 49.408008,14.8814983 47.1431994,16.1755416" id="Path" stroke="#1D9DF7" stroke-width="0.97065195" stroke-linecap="round" stroke-linejoin="round"></path>
                                <line x1="74.3099079" y1="9.39826386" x2="81.3022294" y2="28.392188" id="Path" stroke="#66B0F0" stroke-width="0.97065195"></line>
                                <path d="M84.4685637,31.7808269 L42.2617674,31.7808269 L42.2617674,31.5505311 C42.7894898,29.8397619 50.067661,23.5450088 63.3486742,24.3016951 C74.518798,24.9377503 82.0168535,27.7451664 83.9628298,30.4319512 L84.4685637,31.7808269 Z" id="Path" fill="#1D9DF7" fill-rule="nonzero"></path>
                            </g>
                            <g id="HEAD_1_" transform="translate(68.384025, 0.000000)">
                                <g id="NECK" transform="translate(14.402423, 20.945956)" fill-rule="nonzero">
                                    <path d="M27.5405118,22.2728984 C27.5405118,22.2728984 19.6686529,26.3633913 8.74040194,24.7184209 L8.74040194,24.7184209 C6.02483052,24.3126616 3.11136321,23.5450088 0.0989479465,22.2728984 L0.0989479465,9.06926979 L14.2594985,0.274161723 L16.3813823,3.79439824 L27.5405118,22.2728984 Z" id="Path" fill="#E57281"></path>
                                    <path d="M15.0400879,1.31597627 C15.8866425,2.88418132 16.0295673,4.74848104 15.4138912,6.42635078 L8.74040194,24.7184209 L8.74040194,24.7184209 C6.02483052,24.3126616 3.11136321,23.5450088 0.0989479465,22.2728984 L0.0989479465,9.06926979 L14.3254638,0 L15.0400879,1.31597627 Z" id="Path" fill="#9A3B82"></path>
                                </g>
                                <path d="M28.2221532,16.3510052 C28.2221532,16.3510052 29.8822799,1.6230374 23.9783857,0.274161723 C19.470757,-0.756686355 17.2279369,2.63195254 17.2279369,2.63195254 C17.2279369,2.63195254 14.7872209,-0.921183389 11.0052105,0.745719886 C7.41010177,2.32489141 7.66296875,7.24883595 9.27911854,6.85404307 C10.8952683,6.45925019 7.71793983,3.30090714 4.320727,5.63676502 C0.56070503,8.21388522 4.320727,12.4688752 4.320727,12.4688752 C4.320727,12.4688752 1.53919028,11.1309659 0.252866975,13.8616167 C-1.34129439,17.2502556 7.7619167,24.5539239 7.7619167,24.5539239 L28.2221532,16.3510052 Z" id="HAIR" fill="#022945" fill-rule="nonzero"></path>
                                <g id="HEAD" transform="translate(6.046819, 8.882840)">
                                    <path d="M13.1820653,0.350927005 L3.73803354,4.13435878 C1.46223077,5.0445757 0.351814921,7.64362883 1.26433487,9.90272143 L5.38716598,20.1563699 C6.90436783,23.9398016 11.2580775,25.7821684 15.0400879,24.2687957 L18.9650231,22.7005907 C22.7580277,21.1872179 24.605056,16.8444963 23.0878542,13.0720309 L18.9650231,2.81838251 C18.0525031,0.548323446 15.4468739,-0.559289915 13.1820653,0.350927005 Z" id="HEAD_2_" fill="#E57281" fill-rule="nonzero"></path>
                                    <g id="EARS" transform="translate(0.000000, 6.908875)">
                                        <path d="M24.9898536,5.39550271 L23.0878542,6.16315553 L21.0209415,1.03084808 L22.9229409,0.263195254 C24.0553452,-0.186429972 25.3306743,0.361893474 25.7814372,1.4804733 L26.2102116,2.54422079 C26.6719687,3.66280062 26.1222579,4.93491101 24.9898536,5.39550271 Z" id="Path" fill="#E57281" fill-rule="nonzero"></path>
                                        <path d="M3.34224175,13.6422873 L5.24424117,12.8746345 L3.32025332,8.10422053 L1.4182539,8.87187335 C0.285849623,9.32149858 -0.252866975,10.6045754 0.197895893,11.7231553 L0.483745516,12.4250093 C0.934508384,13.5435891 2.20983747,14.0919126 3.34224175,13.6422873 Z" id="Path" fill="#9A3B82" fill-rule="nonzero"></path>
                                        <path d="M22.670074,3.75053237 C22.3182591,2.86224839 22.7470335,1.86429972 23.637565,1.50240624" id="Path" stroke="#9A3B82" stroke-width="0.808876625" stroke-linecap="round"></path>
                                    </g>
                                    <g id="FACE" transform="translate(7.146241, 5.373570)">
                                        <path d="M6.2776975,0.537356977 C6.2776975,0.537356977 8.5095234,1.37080861 11.3460312,0.0328994067" id="Path" stroke="#9A3B82" stroke-width="0.808876625" stroke-linecap="round"></path>
                                        <path d="M1.56117871,4.28788935 C1.56117871,4.28788935 4.89242625,3.94792881 6.10179004,9.54082796" id="Path" stroke="#9A3B82" stroke-width="0.808876625" stroke-linecap="round"></path>
                                        <path d="M11.0162047,11.3612618 C11.0162047,11.3612618 6.10179004,10.0452855 6.2776975,12.5785398" id="Path" stroke="#9A3B82" stroke-width="0.808876625" stroke-linecap="round"></path>
                                        <ellipse id="Oval" fill="#9A3B82" fill-rule="nonzero" transform="translate(9.958097, 5.130250) rotate(-19.505824) translate(-9.958097, -5.130250) " cx="9.95809715" cy="5.13025014" rx="1" ry="1.10791698"></ellipse>
                                        <ellipse id="Oval" fill="#9A3B82" fill-rule="nonzero" transform="translate(0.889901, 8.904148) rotate(-19.505824) translate(-0.889901, -8.904148) " cx="0.889901192" cy="8.90414827" rx="1" ry="1.10790819"></ellipse>
                                    </g>
                                    <g id="GLASSES" transform="translate(4.837455, 7.237869)" stroke="#022945" stroke-linecap="round" stroke-width="0.808876625">
                                        <ellipse id="Oval" cx="12.5334066" cy="3.2460748" rx="3.17732851" ry="3.16930952"></ellipse>
                                        <ellipse id="Oval" cx="3.18832272" cy="6.86500954" rx="3.17732851" ry="3.16930952"></ellipse>
                                        <line x1="6.15676112" y1="5.72449677" x2="9.50999708" y2="4.18919113" id="Path"></line>
                                    </g>
                                </g>
                            </g>
                            <g id="ARMS" transform="translate(39.029468, 10.198816)">
                                <g id="LEFT">
                                    <path d="M23.9234146,26.5827207 C23.736513,27.0104129 22.6810682,27.1200776 21.0869068,26.9007482 C18.6461908,26.5717542 14.9301457,25.5080067 10.9722279,23.7533717 C8.7074193,22.7444565 6.65150085,21.7136085 4.95839154,20.7485592 C1.73708617,18.9171589 -0.208890109,17.3160544 0.109942163,16.6032339 L0.109942163,16.6032339 C0.428774435,15.9013799 2.9024731,16.2413405 6.39863388,17.3708868 C8.27864486,17.9740426 10.4445055,18.8074942 12.7313025,19.8273758 C16.6452435,21.5600779 20.0424563,23.2489141 22.0434036,24.5539239 C23.4066865,25.4312414 24.1213105,26.1440619 23.9234146,26.5827207 Z" id="Path" stroke="#1D9DF7" stroke-width="0.97065195" fill="#FFFFFF" fill-rule="nonzero"></path>
                                    <path d="M42.5805997,4.34272169 L39.5901728,15.8684805 L36.8965898,9.17893448 C35.8631335,6.61278076 37.10548,3.67376709 39.6451439,2.59905313 L42.5805997,4.34272169 Z" id="Path" fill="#9A3B82" fill-rule="nonzero"></path>
                                    <path d="M42.6905418,4.13435878 L36.753665,14.3989737 C36.0720236,15.5833523 34.7966945,16.3181057 33.4224175,16.3181057 L27.2876448,16.3181057 C26.3861191,16.3181057 25.5835413,16.8664292 25.2427206,17.6889144 L22.0543979,24.5648904 L21.1198895,26.5717542 C18.4263065,26.2098607 14.6772787,25.047415 11.0931642,23.457277 C9.75186984,22.8650877 8.44355811,22.239999 7.23419431,21.6149102 L8.85034411,18.2482043 L11.741823,12.2276128 C13.1270942,8.97057157 15.5128392,6.22895434 18.5582371,4.4085205 L24.5390907,0.822485169 C25.3306743,0.350927005 26.2431943,0.0986982202 27.1667084,0.0986982202 L37.3253643,0.0986982202 C37.8860693,0.0986982202 38.4357801,0.219329378 38.9305199,0.460591694 L41.986912,1.90816559 C42.8334666,2.31392494 43.1522989,3.33380655 42.6905418,4.13435878 Z" id="Path" fill="#E57281" fill-rule="nonzero"></path>
                                    <path d="M28.3320954,4.46335285 L35.5882781,4.46335285 C36.1269947,4.46335285 36.6547171,4.58398401 37.1384626,4.81427985 L40.0739184,6.21798787 C40.8764961,6.60181429 41.1843342,7.58879649 40.7445655,8.35644931" id="Path" stroke="#9A3B82" stroke-width="0.808876625" stroke-linecap="round"></path>
                                    <path d="M26.5290439,7.57783002 L33.7852266,7.57783002 C34.3239432,7.57783002 34.8516656,7.69846118 35.3354111,7.92875703 L38.2708669,9.33246505 C39.0734447,9.71629146 39.3812827,10.7032737 38.9415141,11.4709265" id="Path" stroke="#9A3B82" stroke-width="0.808876625" stroke-linecap="round"></path>
                                    <path d="M24.4071601,11.64639 L31.6633429,11.64639 C32.2020595,11.64639 32.7297819,11.7670211 33.2135274,11.997317 L36.1489831,13.401025 C36.9515609,13.7848514 37.259399,14.7718336 36.8196303,15.5394865" id="Path" stroke="#9A3B82" stroke-width="0.808876625" stroke-linecap="round"></path>
                                    <path d="M21.1308837,26.5717542 C18.4373007,26.2098607 14.688273,25.047415 11.1041584,23.457277 C9.76286406,22.8650877 8.45455232,22.239999 7.24518853,21.6149102 L9.07022843,17.8972773 C10.2905864,18.357869 11.488956,18.8842595 12.8302504,19.4874153 C16.7441914,21.2201174 20.1633927,23.0295847 22.16434,24.3345945 L21.1308837,26.5717542 Z" id="Path" fill="#9A3B82" fill-rule="nonzero"></path>
                                    <line x1="22.263288" y1="16.0220111" x2="27.4085812" y2="16.0220111" id="Path" stroke="#9A3B82" stroke-width="0.808876625" stroke-linecap="round"></line>
                                </g>
                                <g id="RIGHT" transform="translate(50.793279, 80.493882)">
                                    <ellipse id="Oval" fill="#FFFFFF" fill-rule="nonzero" cx="25.7374603" cy="10.9664689" rx="2.62761769" ry="10.9335695"></ellipse>
                                    <path d="M28.365078,10.9664689 C28.365078,12.8417351 28.2551358,14.6073366 28.0462457,16.1536087 C27.3646043,17.8863108 25.9683389,19.2571194 24.2092643,19.9041411 C23.4946402,20.1673363 22.7140508,20.3208669 21.9004788,20.3208669 L11.9287247,20.3208669 C10.675384,20.3208669 9.6529219,21.3407485 9.6529219,22.590926 L9.6529219,22.8979871 C9.6529219,24.7293874 7.6959514,25.913766 6.06880739,25.0583815 L1.38527125,22.6128589 C0.549710814,22.1742001 0.0219884326,21.3078491 0.0219884326,20.3647328 L0.0219884326,16.7128986 C0.0219884326,15.34209 0.670647193,14.0590131 1.75907461,13.236528 L8.90531519,7.87392468 C10.114679,6.96370776 11.587904,6.48118313 13.0941116,6.48118313 L28.1232053,6.48118313 C28.2881185,7.85199174 28.365078,9.36536445 28.365078,10.9664689 Z" id="Path" fill="#E57281" fill-rule="nonzero"></path>
                                    <path d="M10.7083667,10.0123861 L4.14481954,14.9363307 C3.14434586,15.693017 2.55065818,16.8773957 2.55065818,18.1275731 L2.55065818,21.4833126 C2.55065818,22.3496636 3.03440369,23.1502159 3.80399883,23.5450088" id="Path" stroke="#9A3B82" stroke-width="0.808876625" stroke-linecap="round"></path>
                                    <path d="M14.0506084,11.481893 L7.48706129,16.4058375 C6.48658761,17.1625239 5.89289993,18.3469025 5.89289993,19.59708 L5.89289993,22.9528194 C5.89289993,23.8191705 6.37664544,24.6197227 7.14624058,25.0145156" id="Path" stroke="#9A3B82" stroke-width="0.808876625" stroke-linecap="round"></path>
                                    <path d="M28.365078,10.9664689 C28.365078,12.8417351 28.2551358,14.6073366 28.0462457,16.1536087 C27.3646043,17.8863108 25.9683389,19.2571194 24.2092643,19.9041411 C23.5386171,17.9192102 23.0988484,14.6621689 23.0988484,10.9664689 C23.0988484,9.36536445 23.1868021,7.85199174 23.329727,6.48118313 L28.1341995,6.48118313 C28.2881185,7.85199174 28.365078,9.36536445 28.365078,10.9664689 Z" id="Path" fill="#9A3B82" fill-rule="nonzero"></path>
                                </g>
                            </g>
                        </g>
                        <g id="CUP" transform="translate(194.956702, 101.849278)">
                            <ellipse id="Oval" fill="#FDD6BA" cx="11.9472753" cy="37.175285" rx="11.9143021" ry="1.00028118"></ellipse>
                            <path d="M21.8612056,37.93374 L16.9372136,37.93374 C12.3649353,37.93374 8.6719413,34.229402 8.6719413,29.6676802 L8.6719413,22.6437277 L30.137469,22.6437277 L30.137469,29.6566881 C30.137469,34.229402 26.4334839,37.93374 21.8612056,37.93374 Z" id="Path" stroke="#F7771D" stroke-width="0.97065195" fill="#FFFFFF" fill-rule="nonzero"></path>
                            <path d="M33.1380266,28.6564069 L30.126478,28.6564069 L30.126478,23.3032538 L33.1380266,23.3032538 C34.4239799,23.3032538 35.4791211,24.3475034 35.4791211,25.6445713 L35.4791211,26.3260815 C35.4791211,27.6121573 34.4239799,28.6564069 33.1380266,28.6564069 Z" id="Path" stroke="#F7771D" stroke-width="0.97065195" fill="#FFFFFF" fill-rule="nonzero"></path>
                            <ellipse id="Oval" stroke="#F7771D" stroke-width="0.97065195" fill="#FFFFFF" fill-rule="nonzero" cx="19.3992096" cy="22.566783" rx="10.8261878" ry="2.16544387"></ellipse>
                            <g id="Group" transform="translate(8.682932, 26.332738)" fill="#FFFFFF" fill-rule="nonzero" stroke="#F7771D" stroke-width="0.97065195">
                                <path d="M0,0.290130001 C0,1.48826899 4.80309043,2.45557387 10.7162773,2.45557387 C16.6294641,2.45557387 21.4325545,1.48826899 21.4325545,0.290130001" id="Path"></path>
                                <path d="M0,4.33656501 C0,5.534704 4.80309043,6.50200888 10.7162773,6.50200888 C16.6294641,6.50200888 21.4325545,5.534704 21.4325545,4.33656501" id="Path"></path>
                            </g>
                            <path d="M18.9705585,18.7195477 C17.9154174,17.9940691 14.6290924,11.0800376 18.6957822,8.25506773 C21.8172414,6.07863176 22.4217494,11.7175795 20.9819214,11.2449192 C18.4759611,10.4205116 16.9482047,-0.615557647 23.4878816,0.065952605 C26.3675376,0.362739328 26.0487971,4.46279294 23.4878816,4.57271395" id="Path" stroke="#FFFFFF" stroke-width="0.808876625" stroke-linecap="round"></path>
                        </g>
                        <g id="LAPTOP" transform="translate(13.664402, 110.349836)">
                            <path d="M72.4594567,42.3436562 L18.3844142,42.3436562 C16.9321445,42.3436562 15.6339034,41.4662948 15.0948033,40.1283186 L0.297055167,3.67395101 C-0.4070756,1.93019516 0.880163458,0.0219340359 2.76151285,0.0219340359 L56.8365553,0.0219340359 C58.288825,0.0219340359 59.5870661,0.899295471 60.1261663,2.23727166 L74.9239144,38.6916393 C75.6390472,40.4353951 74.3518082,42.3436562 72.4594567,42.3436562 Z" id="Path" stroke="#F7771D" stroke-width="0.97065195" fill="#FFFFFF" fill-rule="nonzero"></path>
                            <path d="M69.9509909,42.6068647 L18.3624102,42.6068647 C16.9871547,42.6068647 15.7439239,41.7733713 15.2268278,40.5011972 L1.11120637,5.72478336 C0.440081729,4.05779664 1.66130853,2.24823868 3.46564362,2.24823868 L55.0542243,2.24823868 C56.4294797,2.24823868 57.6727106,3.08173204 58.1898066,4.35390612 L72.3054281,39.13032 C72.9765527,40.7973067 71.7443239,42.6068647 69.9509909,42.6068647 Z" id="Path" fill="#FF8833"></path>
                            <path d="M38.2761084,26.7924248 C36.7578264,26.7924248 35.3275608,26.2002058 34.2493606,25.1254381 C33.3691971,24.2480767 32.8851072,23.0855728 32.8851072,21.8572667 C32.8851072,20.6179937 33.3691971,19.4554898 34.2493606,18.5890954 C34.9644934,17.8762392 35.9216711,17.4814266 36.9338591,17.4814266 C37.9460471,17.4814266 38.9032249,17.8762392 39.6183577,18.5890954 C40.8395845,19.8064344 40.8395845,21.7804976 39.6183577,22.9978366 C38.6061697,24.0068023 36.9668653,24.0068023 35.9546773,22.9978366 C35.7786446,22.8223643 35.7786446,22.5481889 35.9546773,22.3727166 C36.13071,22.1972443 36.405761,22.1972443 36.5817937,22.3727166 C37.2529184,23.0417047 38.3311186,23.0417047 39.0022433,22.3727166 C39.8824067,21.4953552 39.8824067,20.0806098 39.0022433,19.2032484 C38.4521411,18.6548975 37.7150042,18.347821 36.9338591,18.347821 C36.1527141,18.347821 35.4155772,18.6548975 34.865475,19.2032484 C34.1503422,19.9161046 33.7652707,20.8483011 33.7652707,21.8572667 C33.7652707,22.8552654 34.1613442,23.7984289 34.865475,24.5112851 C35.7786446,25.4215476 36.9778673,25.9150634 38.2651064,25.9150634 C39.5523454,25.9150634 40.7625702,25.4215476 41.6647377,24.5112851 C41.8407704,24.3358128 42.1158215,24.3358128 42.2918542,24.5112851 C42.4678869,24.6867574 42.4678869,24.9609328 42.2918542,25.1364051 C41.224656,26.2002058 39.7943904,26.7924248 38.2761084,26.7924248 Z" id="Path" fill="#FFFFFF" fill-rule="nonzero"></path>
                            <path d="M91.8120508,46.2040466 L18.4504265,46.2040466 C17.6032692,46.2040466 16.9211425,45.5240914 16.9211425,44.6796311 L16.9211425,43.9448409 C16.9211425,43.1003805 17.6032692,42.4204254 18.4504265,42.4204254 L91.8120508,42.4204254 C92.6592081,42.4204254 93.3413348,43.1003805 93.3413348,43.9448409 L93.3413348,44.6796311 C93.3303327,45.5240914 92.648206,46.2040466 91.8120508,46.2040466 Z" id="Path" stroke="#F7771D" stroke-width="0.97065195" fill="#FFFFFF" fill-rule="nonzero"></path>
                        </g>
                    </g>
                </g>
            </g>
        </g>
    </g>
</svg>