<?xml version="1.0" encoding="UTF-8"?>
<svg width="320px" height="286px" viewBox="0 0 320 286" version="1.1" xmlns="http://www.w3.org/2000/svg" xmlns:xlink="http://www.w3.org/1999/xlink">
    <title>Group 10 Copy</title>
    <g id="website-update" stroke="none" stroke-width="1" fill="none" fill-rule="evenodd">
        <g id="Android" transform="translate(-20.000000, -3461.000000)">
            <g id="Group-10-Copy" transform="translate(20.000000, 3461.000000)">
                <rect id="Rectangle-Copy-4" stroke="#E1F2FE" stroke-width="0.998613037" fill="#FFFFFF" x="0.499306519" y="0.499306519" width="318.907943" height="285.001387" rx="3.95123551"></rect>
                <g id="Group-12" transform="translate(36.026907, 33.000000)">
                    <text id="Strategic-Management" font-family="SourceSerifPro-Regular, Source Serif Pro" font-size="16" font-weight="normal" line-spacing="24" letter-spacing="-0.250000006" fill="#0774C0">
                        <tspan x="1.49299729" y="139.890936">Strategic Management </tspan>
                        <tspan x="1.49299729" y="163.890936">Operations Management</tspan>
                        <tspan x="1.49299729" y="187.890936">Digital Strategy</tspan>
                        <tspan x="1.49299729" y="211.890936">Project Management</tspan>
                    </text>
                    <text id="Strategic-advice" transform="translate(123.949954, 94.622444) rotate(0.200000) translate(-123.949954, -94.622444) " font-family="SourceSerifPro-Semibold, Source Serif Pro" font-size="24" font-weight="500" line-spacing="47.9334258" fill="#0774C0">
                        <tspan x="1.51658075" y="103.622444">Strategic advice</tspan>
                    </text>
                    <g id="noun_strategy_2724255" fill="#1D9DF7" fill-rule="nonzero">
                        <path d="M7.73977931,67.1202745 L14.9491928,67.1202745 L14.9491928,66.7590514 C14.9491928,65.9226926 15.2908946,65.1662725 15.8405889,64.6221897 L7.93935299,64.6221897 L7.93935299,64.0081604 L10.3367133,61.4686074 L19.52255,61.4686074 L19.52255,61.1413583 C19.52255,60.3474669 19.8271103,59.5995404 20.3792806,59.0354728 L21.4202332,57.9712887 L10.6051225,57.9712887 L9.11698627,55.3128268 C15.2294873,50.0013989 16.1817955,42.9977684 16.1817955,39.1577124 L16.1817955,38.6855744 L20.605101,38.6855744 L20.605101,35.1882557 L12.6191825,35.1882557 L12.6191825,34.0716118 L20.6055962,34.0716118 L20.6055962,30.574293 L14.1117757,30.574293 C12.5478708,29.1493855 11.6530081,27.1559138 11.6530081,25.010059 C11.6530081,20.8672351 14.9937626,17.4968191 19.1006225,17.4968191 C20.3262921,17.4968191 21.505411,17.79559 22.5597345,18.355161 C22.9702719,17.2639976 23.4417214,16.1983146 23.9730925,15.1636079 C22.477528,14.4086867 20.8220074,14 19.1006225,14 C13.0827084,14 8.18646779,18.9397129 8.18646779,25.0105586 C8.18646779,27.3767445 8.92236479,29.6220231 10.261935,31.4776005 C9.58199789,32.105619 9.15264211,33.0049296 9.15264211,34.0056623 L9.15264211,35.2552043 C9.15264211,37.1467542 10.6784151,38.686074 12.5533182,38.686074 L12.7157504,38.686074 L12.7157504,39.158212 C12.7157504,42.5805882 11.8238591,48.9906738 5.84902916,53.4762349 C5.14829279,54.0023315 4.94525257,54.9715884 5.37460835,55.7385005 L7.45354212,59.4521533 L4.95119521,62.1026213 C4.64415878,62.427872 4.47330786,62.8600406 4.47330786,63.3086967 L4.47330786,65.8717317 C4.47330786,65.9786497 4.42378585,66.9144323 2.70636272,66.9144323 C1.74910236,66.9144323 0.973092546,67.697332 0.973092546,68.6630916 L0.973092546,72.2513406 C0.973092546,73.2171002 1.74910236,74 2.70636272,74 L15.5127532,74 C15.1601565,73.5073777 14.9501832,72.90434 14.9501832,72.2513406 L14.9501832,70.5026813 L4.43913768,70.5026813 L4.43913768,70.1994138 C6.32691651,69.6962995 7.34310805,68.3843054 7.73977931,67.1202745 Z" id="Path"></path>
                        <path d="M61.2075929,65.0243695 C58.5976581,65.0243695 58.3163478,63.5744984 58.3163478,62.9508442 L58.3163478,61.1602085 C58.3163478,60.701199 58.133849,60.2601508 57.8076701,59.9338549 L54.1697931,56.2852287 L57.1270806,51.1757551 C57.4401518,50.6349222 57.4381352,49.9698574 57.1215351,49.4310202 L44.9641896,28.7207134 C44.4827356,27.9009824 44.7277478,26.8437638 45.5227772,26.3134084 C46.2285737,25.8434226 47.1894653,25.9227514 47.8055249,26.5054938 L50.7350847,29.2745182 C52.6936701,31.1255237 55.7371656,31.2233127 57.8137198,29.5010294 L59.5474586,28.0621346 C59.9472419,27.7303506 60.1781382,27.2409068 60.1781382,26.7240223 L60.1781382,22.5405502 C60.1781382,22.1414116 60.0400038,21.7542471 59.7869253,21.4439168 L47.4732963,6.34799402 C47.138043,5.93738013 46.6333985,5.69839586 46.1000179,5.69839586 L44.0668198,5.69839586 L44.0668198,1.74642427 C44.0668198,1.08984119 43.6947641,0.488638592 43.1034075,0.190282449 C42.5130591,-0.107574771 41.8027253,-0.0526932061 41.2653116,0.333473441 L33.7732813,5.71885172 C26.2323494,11.1396535 21.7308799,19.8827857 21.7308799,29.1058822 L21.7308799,50.5501052 C21.7308799,50.8559452 21.8120465,51.156297 21.9663135,51.4212253 L24.7884914,56.2717578 L21.1375067,59.933356 C20.811832,60.2596519 20.628829,60.7007001 20.628829,61.1597095 L20.628829,63.9481919 C20.628829,64.8841721 18.8174526,65.0238706 17.7375839,65.0238706 C16.7630805,65.0238706 15.9730925,65.8056835 15.9730925,66.7701022 L15.9730925,72.2537684 C15.9730925,73.2181872 16.7630805,74 17.7375839,74 L61.2086012,74 C62.1831046,74 62.9730925,73.2181872 62.9730925,72.2537684 L62.9730925,66.7701022 C62.9720843,65.8066813 62.1820963,65.0243695 61.2075929,65.0243695 Z M25.2598626,29.1058822 C25.2598626,20.9968815 29.2178688,13.3104689 35.8473149,8.54475338 L40.5383412,5.17302961 L40.5383412,7.44512639 C40.5383412,8.40954516 41.3283292,9.191358 42.3028325,9.191358 L45.2570952,9.191358 L56.6496597,23.1577184 L56.6496597,25.9097794 L55.5466005,26.8248048 C54.8493743,27.402558 53.8289942,27.3691301 53.1720993,26.7489684 L50.2425395,23.979944 C48.4351962,22.2721295 45.6200763,22.0361388 43.5500759,23.4181564 C41.2204431,24.9718036 40.5015389,28.0721131 41.9126279,30.4759256 L53.558775,50.3151123 L50.9594271,54.8069189 L28.0074277,54.8069189 L25.2598626,50.0841108 L25.2598626,29.1058822 Z M24.1573076,61.8771613 L27.724605,58.2988832 L51.2195636,58.2988832 L54.7868609,61.8771613 L54.7868609,62.7712318 L24.1573076,62.7712318 L24.1573076,61.8771613 Z M59.4431016,70.5080357 L19.5015711,70.5080357 L19.5015711,68.3985879 C22.4618835,67.9720085 23.5528433,66.4692515 23.9455686,65.2653495 L55.3121752,65.2653495 C55.9907482,66.6977583 57.3413403,67.9106409 59.4436057,68.3452031 L59.4436057,70.5080357 L59.4431016,70.5080357 Z" id="Shape"></path>
                    </g>
                </g>
            </g>
        </g>
    </g>
</svg>