<?xml version="1.0" encoding="UTF-8"?>
<svg width="320px" height="286px" viewBox="0 0 320 286" version="1.1" xmlns="http://www.w3.org/2000/svg" xmlns:xlink="http://www.w3.org/1999/xlink">
    <title>Group 11</title>
    <g id="website-update" stroke="none" stroke-width="1" fill="none" fill-rule="evenodd">
        <g id="Android" transform="translate(-20.000000, -1930.000000)">
            <g id="Group-11" transform="translate(20.000000, 1930.000000)">
                <rect id="Rectangle" stroke="#E1F2FE" stroke-width="0.998613037" fill="#FFFFFF" x="0.499306519" y="0.499306519" width="319.001387" height="285.001387" rx="3.99445215"></rect>
                <g id="Group-21" transform="translate(37.000000, 32.000000)">
                    <text id="Email-us-or-click-he" font-family="SourceSerifPro-Regular, Source Serif Pro" font-size="16" font-weight="normal" line-spacing="24" letter-spacing="-0.250000006" fill="#0774C0">
                        <tspan x="1" y="140.398095">Email us or click here to fill out the </tspan>
                        <tspan x="1" y="164.398095">needs assessment. We want to </tspan>
                        <tspan x="1" y="188.398095">understand how we can support </tspan>
                        <tspan x="1" y="212.398095">you and your ideas.</tspan>
                    </text>
                    <text id="Assessment" transform="translate(113.923179, 95.394048) rotate(0.200000) translate(-113.923179, -95.394048) " font-family="SourceSerifPro-Semibold, Source Serif Pro" font-size="24" font-weight="500" line-spacing="47.9334258" fill="#0774C0">
                        <tspan x="1.01396371" y="104.394048">Assessment</tspan>
                    </text>
                    <g id="noun_radio-button_116305-copy-2" transform="translate(1.000000, 0.000000)" fill="#1D9DF7" fill-rule="nonzero">
                        <path d="M9.68370777,19.5423143 C15.0236916,19.5423143 19.3674155,15.159364 19.3674155,9.77115715 C19.3674155,4.38295025 15.0236916,0 9.68370777,0 C4.34372396,0 0,4.38295025 0,9.77115715 C0,15.159364 4.34372396,19.5423143 9.68370777,19.5423143 Z M9.68370777,3.90846286 C12.887853,3.90846286 15.4939324,6.53807667 15.4939324,9.77115715 C15.4939324,13.0042376 12.887853,15.6338514 9.68370777,15.6338514 C6.47956254,15.6338514 3.87348311,13.0042376 3.87348311,9.77115715 C3.87348311,6.53807667 6.47956254,3.90846286 9.68370777,3.90846286 Z" id="Shape"></path>
                        <path d="M9.76865315,13.7139051 C11.8763887,13.7139051 13.5911696,11.9836389 13.5911696,9.85686941 C13.5911696,7.73009991 11.8763887,5.99983369 9.76865315,5.99983369 C7.66091758,5.99983369 5.9461367,7.73009991 5.9461367,9.85686941 C5.9461367,11.9836389 7.66091758,13.7139051 9.76865315,13.7139051 Z" id="Path"></path>
                        <path d="M9.68370777,42.1702572 C15.0236916,42.1702572 19.3674155,37.7873069 19.3674155,32.3991 C19.3674155,27.0108931 15.0236916,22.6279429 9.68370777,22.6279429 C4.34372396,22.6279429 0,27.0108931 0,32.3991 C0,37.7873069 4.34372396,42.1702572 9.68370777,42.1702572 Z M9.68370777,26.5364057 C12.887853,26.5364057 15.4939324,29.1660195 15.4939324,32.3991 C15.4939324,35.6321805 12.887853,38.2617943 9.68370777,38.2617943 C6.47956254,38.2617943 3.87348311,35.6321805 3.87348311,32.3991 C3.87348311,29.1660195 6.47956254,26.5364057 9.68370777,26.5364057 Z" id="Shape"></path>
                        <path d="M9.68370777,64.7982 C15.0236916,64.7982 19.3674155,60.4152498 19.3674155,55.0270429 C19.3674155,49.638836 15.0236916,45.2558857 9.68370777,45.2558857 C4.34372396,45.2558857 0,49.638836 0,55.0270429 C0,60.4152498 4.34372396,64.7982 9.68370777,64.7982 Z M9.68370777,49.1643486 C12.887853,49.1643486 15.4939324,51.7939624 15.4939324,55.0270429 C15.4939324,58.2601233 12.887853,60.8897372 9.68370777,60.8897372 C6.47956254,60.8897372 3.87348311,58.2601233 3.87348311,55.0270429 C3.87348311,51.7939624 6.47956254,49.1643486 9.68370777,49.1643486 Z" id="Shape"></path>
                        <path d="M63.8542234,7.71407143 L27.886166,7.71407143 C26.840442,7.71407143 25.9931103,8.51972905 25.9931103,9.51402143 C25.9931103,10.5083138 26.840442,11.3139714 27.886166,11.3139714 L63.8542234,11.3139714 C64.8999473,11.3139714 65.747279,10.5083138 65.747279,9.51402143 C65.747279,8.51972905 64.8999473,7.71407143 63.8542234,7.71407143 Z" id="Path"></path>
                        <path d="M63.8542234,30.8562857 L27.886166,30.8562857 C26.840442,30.8562857 25.9931103,31.6619433 25.9931103,32.6562357 C25.9931103,33.6505281 26.840442,34.4561857 27.886166,34.4561857 L63.8542234,34.4561857 C64.8999473,34.4561857 65.747279,33.6505281 65.747279,32.6562357 C65.747279,31.6619433 64.8999473,30.8562857 63.8542234,30.8562857 Z" id="Path"></path>
                        <path d="M63.8542234,53.4842286 L27.886166,53.4842286 C26.840442,53.4842286 25.9931103,54.2898862 25.9931103,55.2841786 C25.9931103,56.278471 26.840442,57.0841286 27.886166,57.0841286 L63.8542234,57.0841286 C64.8999473,57.0841286 65.747279,56.278471 65.747279,55.2841786 C65.747279,54.2898862 64.8999473,53.4842286 63.8542234,53.4842286 Z" id="Path"></path>
                    </g>
                </g>
            </g>
        </g>
    </g>
</svg>