<?xml version="1.0" encoding="UTF-8"?>
<svg width="183px" height="41px" viewBox="0 0 183 41" version="1.1" xmlns="http://www.w3.org/2000/svg" xmlns:xlink="http://www.w3.org/1999/xlink">
    <title>Group 27</title>
    <g id="process-1" stroke="none" stroke-width="1" fill="none" fill-rule="evenodd">
        <g id="Group-27">
            <path d="M54.2607997,28 L54.2607997,25.1392002 L55.4127996,23.7376003 L58.0431995,28 L63.3999991,28 L58.6191994,20.3968005 L63.3039991,14.5600008 L58.0815995,14.5600008 L54.2607997,19.5904005 L54.2607997,14.5600008 L49.768,14.5600008 L49.768,28 L54.2607997,28 Z M69.6207988,28 L70.3119987,26.1952001 L75.0159984,26.1952001 L75.7263984,28 L80.6031981,28 L74.9391985,14.4640008 L70.4847987,14.4640008 L64.8207991,28 L69.6207988,28 Z M73.9023985,23.0080003 L71.4447987,23.0080003 L72.6735986,19.7440005 L73.9023985,23.0080003 Z M89.7615976,28 L89.7615976,18.3616006 L93.7167973,18.3616006 L93.7167973,14.5600008 L81.3135981,14.5600008 L81.3135981,18.3616006 L85.2687978,18.3616006 L85.2687978,28 L89.7615976,28 Z M99.227197,28 L99.918397,26.1952001 L104.622397,26.1952001 L105.332797,28 L110.209596,28 L104.545597,14.4640008 L100.091197,14.4640008 L94.4271973,28 L99.227197,28 Z M103.508797,23.0080003 L101.051197,23.0080003 L102.279997,19.7440005 L103.508797,23.0080003 Z M120.615996,28 C121.460796,28 122.206396,27.9072 122.852796,27.7216 C123.499196,27.536 124.039996,27.2768 124.475196,26.9440001 C124.910395,26.6112001 125.236795,26.2176001 125.454395,25.7632001 C125.671995,25.3088002 125.780795,24.8128002 125.780795,24.2752002 L125.780795,24.2752002 L125.780795,24.2368002 C125.780795,23.3152003 125.524795,22.6016003 125.012795,22.0960004 C124.500795,21.5904004 123.809596,21.2160004 122.939196,20.9728004 C123.668796,20.7168004 124.251196,20.3424005 124.686395,19.8496005 C125.121595,19.3568005 125.339195,18.7072006 125.339195,17.9008006 L125.339195,17.9008006 L125.339195,17.8624006 C125.339195,17.4016006 125.262395,16.9984007 125.108795,16.6528007 C124.955195,16.3072007 124.756795,16.0128007 124.513595,15.7696007 C124.116796,15.3728008 123.614396,15.0720008 123.006396,14.8672008 C122.398396,14.6624008 121.627196,14.5600008 120.692796,14.5600008 L120.692796,14.5600008 L113.166396,14.5600008 L113.166396,28 L120.615996,28 Z M119.502396,19.8400005 L117.543996,19.8400005 L117.543996,17.9584006 L119.483196,17.9584006 C120.443196,17.9584006 120.923196,18.2656006 120.923196,18.8800005 L120.923196,18.8800005 L120.923196,18.9184005 C120.923196,19.5328005 120.449596,19.8400005 119.502396,19.8400005 L119.502396,19.8400005 Z M119.790396,24.6016002 L117.543996,24.6016002 L117.543996,22.6048003 L119.809596,22.6048003 C120.295996,22.6048003 120.660796,22.6944003 120.903996,22.8736003 C121.147196,23.0528003 121.268796,23.2896003 121.268796,23.5840003 L121.268796,23.5840003 L121.268796,23.6224003 C121.268796,23.9168002 121.143996,24.1536002 120.894396,24.3328002 C120.644796,24.5120002 120.276796,24.6016002 119.790396,24.6016002 L119.790396,24.6016002 Z M132.980795,28 L133.671995,26.1952001 L138.375995,26.1952001 L139.086395,28 L143.963194,28 L138.299195,14.4640008 L133.844795,14.4640008 L128.180795,28 L132.980795,28 Z M137.262395,23.0080003 L134.804795,23.0080003 L136.033595,19.7440005 L137.262395,23.0080003 Z M152.507194,28.2496 C153.415994,28.2496 154.235194,28.144 154.964794,27.9328 C155.694394,27.7216 156.315194,27.4208 156.827194,27.0304001 C157.339194,26.6400001 157.735994,26.1632001 158.017594,25.6000001 C158.299193,25.0368002 158.439993,24.4032002 158.439993,23.6992003 L158.439993,23.6992003 L158.439993,23.6608003 C158.439993,22.9824003 158.302393,22.4064003 158.027194,21.9328004 C157.751994,21.4592004 157.361594,21.0528004 156.855994,20.7136004 C156.350394,20.3744005 155.745594,20.0960005 155.041594,19.8784005 C154.337594,19.6608005 153.556794,19.4752005 152.699194,19.3216005 C151.982394,19.1808005 151.505594,19.0464005 151.268794,18.9184005 C151.031994,18.7904005 150.913594,18.6368006 150.913594,18.4576006 L150.913594,18.4576006 L150.913594,18.4192006 C150.913594,18.2528006 150.993594,18.1184006 151.153594,18.0160006 C151.313594,17.9136006 151.559994,17.8624006 151.892794,17.8624006 C152.519994,17.8624006 153.188794,17.9680006 153.899194,18.1792006 C154.609594,18.3904006 155.284794,18.7264006 155.924794,19.1872005 L155.924794,19.1872005 L158.113593,16.1536007 C157.332794,15.5392007 156.452794,15.0784008 155.473594,14.7712008 C154.494394,14.4640008 153.351994,14.3104008 152.046394,14.3104008 C151.124794,14.3104008 150.308794,14.4256008 149.598394,14.6560008 C148.887994,14.8864008 148.292794,15.2064008 147.812794,15.6160007 C147.332794,16.0256007 146.967994,16.5056007 146.718394,17.0560007 C146.468794,17.6064006 146.343994,18.2016006 146.343994,18.8416005 L146.343994,18.8416005 L146.343994,18.8800005 C146.343994,19.5840005 146.497594,20.1792005 146.804794,20.6656004 C147.111994,21.1520004 147.524794,21.5552004 148.043194,21.8752004 C148.561594,22.1952003 149.163194,22.4576003 149.847994,22.6624003 C150.532794,22.8672003 151.252794,23.0464003 152.007994,23.2000003 C152.737594,23.3408003 153.230394,23.4752003 153.486394,23.6032003 C153.742394,23.7312003 153.870394,23.8912002 153.870394,24.0832002 L153.870394,24.0832002 L153.870394,24.1216002 C153.870394,24.3008002 153.780794,24.4416002 153.601594,24.5440002 C153.422394,24.6464002 153.127994,24.6976002 152.718394,24.6976002 C151.924794,24.6976002 151.124794,24.5760002 150.318394,24.3328002 C149.511994,24.0896002 148.743994,23.6864003 148.014394,23.1232003 L148.014394,23.1232003 L145.614394,25.9840001 C146.471994,26.7392001 147.492794,27.3056 148.676794,27.6832 C149.860794,28.0608 151.137594,28.2496 152.507194,28.2496 Z M166.407993,28 L166.407993,14.5600008 L161.915193,14.5600008 L161.915193,28 L166.407993,28 Z M176.161592,28.2496 C177.070392,28.2496 177.889592,28.144 178.619192,27.9328 C179.348792,27.7216 179.969592,27.4208 180.481592,27.0304001 C180.993592,26.6400001 181.390392,26.1632001 181.671992,25.6000001 C181.953592,25.0368002 182.094392,24.4032002 182.094392,23.6992003 L182.094392,23.6992003 L182.094392,23.6608003 C182.094392,22.9824003 181.956792,22.4064003 181.681592,21.9328004 C181.406392,21.4592004 181.015992,21.0528004 180.510392,20.7136004 C180.004792,20.3744005 179.399992,20.0960005 178.695992,19.8784005 C177.991992,19.6608005 177.211192,19.4752005 176.353592,19.3216005 C175.636792,19.1808005 175.159992,19.0464005 174.923192,18.9184005 C174.686393,18.7904005 174.567993,18.6368006 174.567993,18.4576006 L174.567993,18.4576006 L174.567993,18.4192006 C174.567993,18.2528006 174.647993,18.1184006 174.807993,18.0160006 C174.967992,17.9136006 175.214392,17.8624006 175.547192,17.8624006 C176.174392,17.8624006 176.843192,17.9680006 177.553592,18.1792006 C178.263992,18.3904006 178.939192,18.7264006 179.579192,19.1872005 L179.579192,19.1872005 L181.767992,16.1536007 C180.987192,15.5392007 180.107192,15.0784008 179.127992,14.7712008 C178.148792,14.4640008 177.006392,14.3104008 175.700792,14.3104008 C174.779193,14.3104008 173.963193,14.4256008 173.252793,14.6560008 C172.542393,14.8864008 171.947193,15.2064008 171.467193,15.6160007 C170.987193,16.0256007 170.622393,16.5056007 170.372793,17.0560007 C170.123193,17.6064006 169.998393,18.2016006 169.998393,18.8416005 L169.998393,18.8416005 L169.998393,18.8800005 C169.998393,19.5840005 170.151993,20.1792005 170.459193,20.6656004 C170.766393,21.1520004 171.179193,21.5552004 171.697593,21.8752004 C172.215993,22.1952003 172.817593,22.4576003 173.502393,22.6624003 C174.187193,22.8672003 174.907192,23.0464003 175.662392,23.2000003 C176.391992,23.3408003 176.884792,23.4752003 177.140792,23.6032003 C177.396792,23.7312003 177.524792,23.8912002 177.524792,24.0832002 L177.524792,24.0832002 L177.524792,24.1216002 C177.524792,24.3008002 177.435192,24.4416002 177.255992,24.5440002 C177.076792,24.6464002 176.782392,24.6976002 176.372792,24.6976002 C175.579192,24.6976002 174.779193,24.5760002 173.972793,24.3328002 C173.166393,24.0896002 172.398393,23.6864003 171.668793,23.1232003 L171.668793,23.1232003 L169.268793,25.9840001 C170.126393,26.7392001 171.147193,27.3056 172.331193,27.6832 C173.515193,28.0608 174.791993,28.2496 176.161592,28.2496 Z" id="KATABASIS" fill="#FFFFFF" fill-rule="nonzero"></path>
            <g id="Group-11">
                <circle id="Oval-Copy" stroke="#FFFFFF" stroke-width="3" cx="20.5" cy="20.5" r="19"></circle>
                <polygon id="K" fill="#FFFFFF" fill-rule="nonzero" points="19.2528001 28 19.2528001 25.1392002 20.4048 23.7376003 23.0351999 28 28.3919996 28 23.6111998 20.3968005 28.2959996 14.5600008 23.0735999 14.5600008 19.2528001 19.5904005 19.2528001 14.5600008 14.7600004 14.5600008 14.7600004 28"></polygon>
            </g>
        </g>
    </g>
</svg>