<?xml version="1.0" encoding="UTF-8"?>
<svg width="120px" height="40px" viewBox="0 0 120 40" version="1.1" xmlns="http://www.w3.org/2000/svg" xmlns:xlink="http://www.w3.org/1999/xlink">
    <title>Group 14</title>
    <g id="process-1" stroke="none" stroke-width="1" fill="none" fill-rule="evenodd">
        <g id="Pixel-2-XL-Copy-2" transform="translate(-109.000000, -40.000000)">
            <g id="Group-14" transform="translate(109.000000, 40.000000)">
                <path d="M50.0070314,24 L50.0070314,21.7687498 L50.7015627,20.888281 L52.6921878,24 L55.0492192,24 L52.161719,19.5921872 L54.8906255,16.1085932 L52.7359378,16.1085932 L50.1109376,19.4992184 L50.0070314,19.4992184 L50.0070314,16.1085932 L48,16.1085932 L48,24 L50.0070314,24 Z M58.4015632,24 L58.910157,22.2664061 L61.4859384,22.2664061 L61.978126,24 L64.1656261,24 L61.5132822,16.1085932 L59.0578133,16.1085932 L56.4109381,24 L58.4015632,24 Z M61.1085946,20.822656 L59.2929695,20.822656 L60.1570321,17.8859371 L60.2609383,17.8859371 L61.1085946,20.822656 Z M69.2296889,24 L69.2296889,17.7218746 L71.5101579,17.7218746 L71.5101579,16.1085932 L64.9531262,16.1085932 L64.9531262,17.7218746 L67.2281263,17.7218746 L67.2281263,24 L69.2296889,24 Z M74.2937518,24 L74.8023456,22.2664061 L77.378127,22.2664061 L77.8703145,24 L80.0578147,24 L77.4054708,16.1085932 L74.9500018,16.1085932 L72.3031267,24 L74.2937518,24 Z M77.0007832,20.822656 L75.1851581,20.822656 L76.0492207,17.8859371 L76.1531269,17.8859371 L77.0007832,20.822656 Z M85.8710963,24 C87.5609402,24 88.6273465,23.1085932 88.6273465,21.7249998 C88.6273465,20.7187498 87.828909,19.9148435 86.7953151,19.860156 L86.7953151,19.7562497 C87.6320339,19.641406 88.266409,18.9249997 88.266409,18.0773433 C88.266409,16.8523433 87.3367214,16.1085932 85.7617213,16.1085932 L82.0812523,16.1085932 L82.0812523,24 L85.8710963,24 Z M85.1492213,19.3242184 L84.0882837,19.3242184 L84.0882837,17.5249996 L85.2257838,17.5249996 C85.9093776,17.5249996 86.3085964,17.8640621 86.3085964,18.4273434 C86.3085964,18.9851559 85.8820338,19.3242184 85.1492213,19.3242184 Z M85.3023463,22.5835937 L84.0882837,22.5835937 L84.0882837,20.5437498 L85.2914088,20.5437498 C86.1226588,20.5437498 86.5875026,20.9046873 86.5875026,21.5499998 C86.5875026,22.2171874 86.1335963,22.5835937 85.3023463,22.5835937 Z M92.2203155,24 L92.7289093,22.2664061 L95.3046907,22.2664061 L95.7968783,24 L97.9843784,24 L95.3320345,16.1085932 L92.8765656,16.1085932 L90.2296904,24 L92.2203155,24 Z M94.9273469,20.822656 L93.1117218,20.822656 L93.9757844,17.8859371 L94.0796906,17.8859371 L94.9273469,20.822656 Z M102.950004,24.2132813 C105.017191,24.2132813 106.275004,23.2179687 106.275004,21.5718748 C106.275004,20.319531 105.575004,19.6140622 104.01641,19.3132809 L102.999222,19.1164059 C102.167972,18.9523434 101.817972,18.7007809 101.817972,18.2687496 C101.817972,17.7437496 102.282816,17.4101558 102.988285,17.4101558 C103.693754,17.4101558 104.224223,17.7984371 104.267973,18.3562496 L106.121879,18.3562496 C106.089066,16.8960933 104.809379,15.8953119 102.960941,15.8953119 C101.057816,15.8953119 99.8218785,16.9070308 99.8218785,18.4492184 C99.8218785,19.6906247 100.565629,20.4781248 102.009379,20.7515623 L103.048441,20.9593748 C103.950785,21.1398436 104.295316,21.3749998 104.295316,21.8124999 C104.295316,22.3320311 103.781254,22.6929687 103.032035,22.6929687 C102.200785,22.6929687 101.626566,22.3265624 101.577347,21.7523436 L99.6632848,21.7523436 C99.6960973,23.2726562 100.95391,24.2132813 102.950004,24.2132813 Z M110.496879,24 L110.496879,16.1085932 L108.489848,16.1085932 L108.489848,24 L110.496879,24 Z M115.998442,24.2132813 C118.06563,24.2132813 119.323442,23.2179687 119.323442,21.5718748 C119.323442,20.319531 118.623442,19.6140622 117.064848,19.3132809 L116.047661,19.1164059 C115.216411,18.9523434 114.866411,18.7007809 114.866411,18.2687496 C114.866411,17.7437496 115.331255,17.4101558 116.036723,17.4101558 C116.742192,17.4101558 117.272661,17.7984371 117.316411,18.3562496 L119.170317,18.3562496 C119.137505,16.8960933 117.857817,15.8953119 116.00938,15.8953119 C114.106255,15.8953119 112.870317,16.9070308 112.870317,18.4492184 C112.870317,19.6906247 113.614067,20.4781248 115.057817,20.7515623 L116.09688,20.9593748 C116.999223,21.1398436 117.343755,21.3749998 117.343755,21.8124999 C117.343755,22.3320311 116.829692,22.6929687 116.080473,22.6929687 C115.249223,22.6929687 114.675005,22.3265624 114.625786,21.7523436 L112.711723,21.7523436 C112.744536,23.2726562 114.002348,24.2132813 115.998442,24.2132813 Z" id="KATABASIS" fill="#FFFFFF" fill-rule="nonzero"></path>
                <g id="Group-11">
                    <circle id="Oval-Copy" stroke="#FFFFFF" stroke-width="2.10000014" cx="19.7931048" cy="19.7931048" r="18.7431047"></circle>
                    <polygon id="k" fill="#FFFFFF" fill-rule="nonzero" points="17.8127813 28 17.8127813 24.3503268 18.5472547 23.545098 21.549955 28 26 28 21.420342 21.3594771 25.7083708 16.3607843 21.4311431 16.3607843 18.0180018 20.7111111 17.8127813 20.7111111 17.8127813 12 14 12 14 28"></polygon>
                </g>
            </g>
        </g>
    </g>
</svg>