<?xml version="1.0" encoding="UTF-8"?>
<svg width="320px" height="290px" viewBox="0 0 320 290" version="1.1" xmlns="http://www.w3.org/2000/svg" xmlns:xlink="http://www.w3.org/1999/xlink">
    <title>Group 7</title>
    <g id="website-update" stroke="none" stroke-width="1" fill="none" fill-rule="evenodd">
        <g id="Android" transform="translate(-20.000000, -2543.000000)">
            <g id="Group-7" transform="translate(20.000000, 2543.000000)">
                <rect id="Rectangle-Copy-5" stroke="#E1F2FE" stroke-width="0.998613037" fill="#FFFFFF" x="0.499306519" y="0.499306519" width="318.907943" height="289.001387" rx="3.95123551"></rect>
                <g id="Group-12-Copy" transform="translate(35.052176, 32.451400)">
                    <text id="We-hop-on-a-call-and" font-family="SourceSerifPro-Regular, Source Serif Pro" font-size="16" font-weight="normal" line-spacing="24" letter-spacing="-0.250000006" fill="#0774C0">
                        <tspan x="0.492997286" y="144.5486">We hop on a call and get to know </tspan>
                        <tspan x="0.492997286" y="168.5486">one another. We discuss your </tspan>
                        <tspan x="0.492997286" y="192.5486">problems and how we can solve </tspan>
                        <tspan x="0.492997286" y="216.5486">them for you. It’s that easy.</tspan>
                    </text>
                    <text id="Grow-together" transform="translate(122.944718, 98.122435) rotate(0.200000) translate(-122.944718, -98.122435) " font-family="SourceSerifPro-Semibold, Source Serif Pro" font-size="24" font-weight="500" line-spacing="47.9334258" fill="#0774C0">
                        <tspan x="0.51134477" y="105.622435">Grow together</tspan>
                    </text>
                    <g id="noun_growth_791005" transform="translate(0.492997, 0.000000)" fill="#1D9DF7" fill-rule="nonzero">
                        <path d="M72.9115509,1.17897327 L72.9115509,1.17897327 C73.2440658,1.22557677 73.5439904,1.40383367 73.7440799,1.67377781 C73.9441694,1.94372194 74.0276835,2.28276881 73.975898,2.61490224 C69.899675,27.2977656 61.5509665,31.6886853 54.8931357,30.6684199 C53.3920379,30.4297815 51.9360516,29.9634148 50.5753588,29.2853936 C48.6190429,28.3129715 46.8544842,26.9943825 45.3668517,25.3932703 C43.3363316,28.4425319 42.0915218,31.9477152 41.7435424,35.5959236 L33.2816055,35.5959236 C33.5722354,34.4114488 33.9481297,33.2495924 34.4063411,32.119464 L34.4063411,31.5299773 C34.4063411,31.3032517 34.4063411,31.0790453 34.4063411,30.857358 C34.1736899,27.5262251 32.7287242,24.3962315 30.3452153,22.0604036 L25.604719,17.321838 C25.5516459,17.2666938 25.4705752,17.2490774 25.3994443,17.2772323 C25.3283134,17.3053872 25.2811921,17.3737444 25.2801308,17.4503158 C25.2784482,17.4653839 25.2784482,17.4805929 25.2801308,17.495661 C26.0563212,20.5125323 27.4352804,23.3405688 29.3337081,25.808934 C24.5630175,27.6000664 16.2369547,27.6302965 15.9878522,6.15937956 L15.9878522,6.15937956 C15.9878522,5.93758216 16.0763607,5.72497737 16.2337164,5.56885418 C16.3910721,5.41273099 16.6042172,5.32603592 16.8257425,5.32805226 C33.4325767,5.5245478 37.1464688,10.5729718 37.1464688,15.0621392 C37.1345432,16.0633631 36.971671,17.0570437 36.6633609,18.0095724 C36.2794545,19.224678 35.7034904,20.3703191 34.9573861,21.4028993 C36.3050037,22.5941907 37.4520007,23.995188 38.3542385,25.5519783 C39.5646564,24.0863377 40.9372014,22.7628711 42.4455586,21.6069523 L46.3783589,18.7048643 L46.3783589,18.7048643 L54.1684739,12.9687059 C54.2607959,12.9004714 54.3036152,12.7837153 54.2773322,12.6718801 C54.2510493,12.560045 54.1607224,12.4746545 54.0476969,12.4547945 L53.9722113,12.4547945 C49.3126166,12.9332122 44.7982499,14.352375 40.701841,16.6265461 C39.1241918,9.06902512 40.9811378,-3.32530921 72.9115509,1.17897327 Z M18.4939745,62.2361849 L41.8039309,62.2361849 C44.9469165,62.2359074 47.936153,60.8745487 50.0016682,58.5027695 L64.6005852,41.7930908 C65.4105024,40.8616209 65.8103607,39.6421509 65.7094524,38.4113164 C65.6085441,37.180482 65.0154227,36.0426133 64.0646373,35.2558352 C63.2676718,34.5993781 62.2659248,34.2436702 61.233927,34.2505831 C59.8482828,34.2571095 58.5308005,34.8534283 57.6106177,35.8906669 L50.7565243,43.5388781 C50.7565243,43.5388781 50.7565243,43.6068958 50.7565243,43.6446834 C50.546538,47.9140347 47.0169046,51.2613412 42.747501,51.2399919 L34.3535012,51.2399919 C33.7155519,51.2824545 33.1070508,50.9657953 32.7751989,50.4186556 C32.443347,49.8715159 32.443347,49.184911 32.7751989,48.6377713 C33.1070508,48.0906316 33.7155519,47.7739723 34.3535012,47.8164349 L42.747501,47.8164349 C45.1752475,47.8527376 47.1997093,45.9658866 47.3370261,43.5388781 C47.3717187,42.3482268 46.9234241,41.1942422 46.0943219,40.3399509 C45.2652196,39.4856596 44.1259606,39.003859 42.9362151,39.0043655 L28.9487315,39.0043655 L26.6841632,38.2032683 C20.9794644,36.1962058 14.6308006,37.6318554 10.3415286,41.8988961 L0,52.1922396 L14.4403972,66.2870161 L18.4939745,62.2361849 Z" id="Shape"></path>
                    </g>
                </g>
            </g>
        </g>
    </g>
</svg>