<?xml version="1.0" encoding="UTF-8"?>
<svg width="320px" height="286px" viewBox="0 0 320 286" version="1.1" xmlns="http://www.w3.org/2000/svg" xmlns:xlink="http://www.w3.org/1999/xlink">
    <title>Group 11 Copy</title>
    <g id="website-update" stroke="none" stroke-width="1" fill="none" fill-rule="evenodd">
        <g id="Android" transform="translate(-20.000000, -3151.000000)">
            <g id="Group-11-Copy" transform="translate(20.000000, 3151.000000)">
                <rect id="Rectangle" stroke="#E1F2FE" stroke-width="0.998613037" fill="#FFFFFF" x="0.499306519" y="0.499306519" width="319.001387" height="285.001387" rx="3.99445215"></rect>
                <g id="Group-21" transform="translate(37.000000, 32.000000)">
                    <text id="Financial-Modeling-A" font-family="SourceSerifPro-Regular, Source Serif Pro" font-size="16" font-weight="normal" line-spacing="24" letter-spacing="-0.250000006" fill="#0774C0">
                        <tspan x="1" y="140.398095">Financial Modeling</tspan>
                        <tspan x="1" y="164.398095">Accounting</tspan>
                        <tspan x="1" y="188.398095">Bookkeeping</tspan>
                        <tspan x="1" y="212.398095">Portfolio Management</tspan>
                    </text>
                    <text id="Financial-advice" transform="translate(113.923179, 95.394048) rotate(0.200000) translate(-113.923179, -95.394048) " font-family="SourceSerifPro-Semibold, Source Serif Pro" font-size="24" font-weight="500" line-spacing="47.9334258" fill="#0774C0">
                        <tspan x="1.01396371" y="104.394048">Financial advice</tspan>
                    </text>
                    <g id="noun_Pie-Chart_2724279" transform="translate(1.000000, 0.000000)" fill="#1D9DF7" fill-rule="nonzero">
                        <path d="M30.3250802,39.2569114 L8.17349446,22.3599877 C7.79213783,22.0690499 7.30659358,21.9466013 6.82752989,22.0215399 C6.35046023,22.0964784 5.92673064,22.3624367 5.65654072,22.7562313 C1.95613517,28.1508257 0,34.4525191 0,40.9800078 C0,51.5786666 5.26920203,61.561654 14.09524,67.6860419 C14.3923493,67.8922453 14.7442941,68 15.1017224,68 C15.2343249,68 15.3674258,67.9853062 15.4990312,67.9549389 C15.985074,67.8432658 16.3988335,67.533226 16.6356235,67.1022071 L30.7891887,41.4271899 C31.1959691,40.6895597 30.999558,39.7711954 30.3250802,39.2569114 Z M14.5344233,63.7147897 C7.58475959,58.1801141 3.48953777,49.8183459 3.48953777,40.9800078 C3.48953777,35.7548822 4.88983942,30.6918785 7.55385225,26.2274035 L27.0160014,41.0730687 L14.5344233,63.7147897 Z" id="Shape"></path>
                        <path d="M4.66165323,14.1818172 L28.2438828,32.6381024 C28.5494671,32.877398 28.9189997,33 29.2914611,33 C29.5472538,33 29.804511,32.9423918 30.0427301,32.8247135 C30.6285148,32.5351955 31,31.9344947 31,31.2766781 L31,1.72367694 C31,1.23917729 30.7979043,0.777327024 30.4430163,0.450880618 C30.0881284,0.124434211 29.6146191,-0.0385428033 29.13574,0.00774069932 C19.8857107,0.860538853 11.1394562,4.97583156 4.50690843,11.5948648 C4.15690204,11.9439606 3.97335615,12.4279679 4.00313355,12.9232998 C4.03291094,13.4191241 4.27259453,13.8775278 4.66165323,14.1818172 Z M27.5824341,3.66118314 L27.5824341,27.7576548 L8.33647622,12.6948366 C13.7388761,7.84787061 20.4553864,4.69517628 27.5824341,3.66118314 Z" id="Shape"></path>
                        <path d="M52.0650503,13.7916735 C49.9858735,12.3125486 47.7393616,11.0796136 45.38391,10.1266203 C42.7040931,9.04904306 39.9045407,8.33727622 37.0627865,8.01117385 C36.5750118,7.95508622 36.0901813,8.11193303 35.7250863,8.44150986 C35.3599913,8.77108669 35.1514357,9.24261981 35.1514357,9.73748141 L35.1514357,41.2984338 L20.2075676,69.1893695 C19.9739853,69.6251654 19.9357092,70.1413701 20.102063,70.6074433 C20.2689074,71.0735166 20.6246788,71.4457796 21.0795754,71.630422 C23.7746046,72.7199117 26.5986929,73.4416055 29.4718531,73.7756495 C30.7334918,73.9245547 32.011815,74 33.269528,74 C34.5277318,74 35.806055,73.9245547 37.0657309,73.7756495 C45.01538,72.8484665 52.3403437,68.9972818 57.6896724,62.9328696 C59.3939397,61.00554 60.866097,58.8886045 62.0624701,56.6436105 C64.6382546,51.8453888 66,46.3989331 66,40.8934117 C66.0004907,30.1201208 60.7905262,19.9886114 52.0650503,13.7916735 Z M60.9765088,50.5231106 L38.5864693,27.8771122 L38.5864693,16.7434708 L62.563985,40.9916891 C62.5531892,44.2447713 62.0104539,47.4715468 60.9765088,50.5231106 Z M44.1114754,13.3538922 C46.2161695,14.20563 48.2271363,15.3085211 50.0903967,16.6342737 C56.9113919,21.4781597 61.3303172,29.0073027 62.34218,37.2581395 L38.5864693,13.2342717 L38.5864693,11.7496869 C40.4688677,12.0961397 42.3203508,12.6336874 44.1114754,13.3538922 Z M37.2468062,44.6785817 L54.0980994,61.723263 C52.2372927,63.6282568 50.1483015,65.2572797 47.8885402,66.575587 L33.3765048,51.9019727 L37.2468062,44.6785817 Z M37.0603329,70.2699249 L28.2892201,61.3986497 L32.1575586,54.1782368 L45.6052243,67.7762592 C42.9195188,69.0379826 40.0404699,69.880786 37.0603329,70.2699249 Z M29.8663912,70.3240271 C27.9344302,70.0996766 26.0284773,69.6797639 24.1774849,69.0717344 L27.0692925,63.6744174 L33.8260035,70.5081732 C32.5064599,70.5334871 31.1849534,70.4798812 29.8663912,70.3240271 Z M55.7444619,59.8793204 L38.4485772,42.3849454 C38.531018,42.1784635 38.5859786,41.9620546 38.5859786,41.7377041 L38.5859786,31.3863113 L59.9931077,53.0386157 C59.699167,53.7002511 59.3836346,54.3524559 59.0411127,54.9907628 C58.120033,56.7195521 57.0065914,58.3550275 55.7444619,59.8793204 Z" id="Shape"></path>
                    </g>
                </g>
            </g>
        </g>
    </g>
</svg>