<?xml version="1.0" encoding="UTF-8"?>
<svg width="115px" height="19px" viewBox="0 0 115 19" version="1.1" xmlns="http://www.w3.org/2000/svg" xmlns:xlink="http://www.w3.org/1999/xlink">
    <title>Katabasis</title>
    <g id="website-update" stroke="none" stroke-width="1" fill="none" fill-rule="evenodd">
        <g id="Android" transform="translate(-20.000000, -82.000000)" fill="#FFFFFF" fill-rule="nonzero">
            <g id="Group" transform="translate(20.000000, 72.000000)">
                <path d="M8.208,28 L8.208,26.584 L6.912,26.44 C6.896,25.72 6.888,25 6.888,24.28 L6.888,24.28 L6.888,22.12 L7.824,21.016 L10.44,26.488 L9.624,26.584 L9.624,28 L16.872,28 L16.872,26.584 L15.552,26.44 L10.848,17.44 L13.728,14.056 L15.96,13.768 L15.96,12.352 L10.392,12.352 L10.392,13.768 L11.88,14.056 L6.888,20.248 L6.888,16.84 C6.888,15.864 6.896,14.896 6.912,13.936 L6.912,13.936 L8.568,13.768 L8.568,12.352 L0.672,12.352 L0.672,13.768 L2.328,13.936 C2.344,14.912 2.352,15.888 2.352,16.864 L2.352,16.864 L2.352,23.5 C2.352,24.484 2.344,25.456 2.328,26.416 L2.328,26.416 L0.672,26.584 L0.672,28 L8.208,28 Z M27.4390417,28.384 C28.2870417,28.384 28.9630417,28.228 29.4670417,27.916 C29.9710417,27.604 30.3670417,27.08 30.6550417,26.344 L30.6550417,26.344 L29.9590417,25.96 C29.8150417,26.168 29.6950417,26.308 29.5990417,26.38 C29.5030417,26.452 29.4070417,26.488 29.3110417,26.488 C29.0390417,26.488 28.9030417,26.352 28.9030417,26.08 L28.9030417,26.08 L28.9030417,20.584 C28.9030417,18.936 28.5630417,17.748 27.8830417,17.02 C27.2030417,16.292 26.0310417,15.928 24.3670417,15.928 C22.4310417,15.928 20.9710417,16.252 19.9870417,16.9 C19.0030417,17.548 18.5110417,18.392 18.5110417,19.432 C18.7510417,20.296 19.3590417,20.728 20.3350417,20.728 C20.8470417,20.728 21.3030417,20.524 21.7030417,20.116 C22.1030417,19.708 22.3030417,19.016 22.3030417,18.04 L22.3030417,18.04 L22.3030417,17.224 L22.3030417,17.224 L22.6630417,17.224 C23.4150417,17.224 23.9070417,17.416 24.1390417,17.8 C24.3710417,18.184 24.4870417,18.888 24.4870417,19.912 L24.4870417,19.912 L24.4870417,20.776 C24.2150417,20.84 23.9510417,20.908 23.6950417,20.98 C23.4390417,21.052 23.2150417,21.112 23.0230417,21.16 C21.7270417,21.496 20.7230417,21.868 20.0110417,22.276 C19.2990417,22.684 18.8030417,23.132 18.5230417,23.62 C18.2430417,24.108 18.1030417,24.664 18.1030417,25.288 C18.1030417,26.264 18.3870417,27.024 18.9550417,27.568 C19.5230417,28.112 20.2790417,28.384 21.2230417,28.384 C22.0870417,28.384 22.7550417,28.228 23.2270417,27.916 C23.6990417,27.604 24.1670417,27.192 24.6310417,26.68 C24.8390417,27.224 25.1710417,27.644 25.6270417,27.94 C26.0830417,28.236 26.6870417,28.384 27.4390417,28.384 Z M23.4790417,26.296 C23.1270417,26.296 22.8310417,26.152 22.5910417,25.864 C22.3510417,25.576 22.2310417,25.136 22.2310417,24.544 C22.2310417,23.888 22.4070417,23.368 22.7590417,22.984 C23.1110417,22.6 23.4550417,22.328 23.7910417,22.168 C24.0150417,22.056 24.2470417,21.968 24.4870417,21.904 L24.4870417,21.904 L24.4870417,25.84 C24.1990417,26.032 23.9870417,26.156 23.8510417,26.212 C23.7150417,26.268 23.5910417,26.296 23.4790417,26.296 Z M36.5900833,28.384 C37.5820833,28.384 38.3820833,28.192 38.9900833,27.808 C39.5980833,27.424 40.0620833,26.888 40.3820833,26.2 L40.3820833,26.2 L39.7820833,25.648 C39.3660833,25.968 38.9740833,26.128 38.6060833,26.128 C38.2700833,26.128 37.9900833,26 37.7660833,25.744 C37.5420833,25.488 37.4300833,25.088 37.4300833,24.544 L37.4300833,24.544 L37.4300833,18.112 L39.6380833,18.112 L39.6380833,16.312 L37.4300833,16.312 L37.4300833,12.904 L34.5740833,12.904 L33.1340833,16.312 L31.5020833,16.528 L31.5020833,18.112 L32.8700833,18.112 L32.8700833,22.24 C32.8700833,22.704 32.8660833,23.132 32.8580833,23.524 C32.8500833,23.916 32.8460833,24.344 32.8460833,24.808 C32.8460833,26.088 33.1740833,27.004 33.8300833,27.556 C34.4860833,28.108 35.4060833,28.384 36.5900833,28.384 Z M50.829125,28.384 C51.677125,28.384 52.353125,28.228 52.857125,27.916 C53.361125,27.604 53.757125,27.08 54.045125,26.344 L54.045125,26.344 L53.349125,25.96 C53.205125,26.168 53.085125,26.308 52.989125,26.38 C52.893125,26.452 52.797125,26.488 52.701125,26.488 C52.429125,26.488 52.293125,26.352 52.293125,26.08 L52.293125,26.08 L52.293125,20.584 C52.293125,18.936 51.953125,17.748 51.273125,17.02 C50.593125,16.292 49.421125,15.928 47.757125,15.928 C45.821125,15.928 44.361125,16.252 43.377125,16.9 C42.393125,17.548 41.901125,18.392 41.901125,19.432 C42.141125,20.296 42.749125,20.728 43.725125,20.728 C44.237125,20.728 44.693125,20.524 45.093125,20.116 C45.493125,19.708 45.693125,19.016 45.693125,18.04 L45.693125,18.04 L45.693125,17.224 L45.693125,17.224 L46.053125,17.224 C46.805125,17.224 47.297125,17.416 47.529125,17.8 C47.761125,18.184 47.877125,18.888 47.877125,19.912 L47.877125,19.912 L47.877125,20.776 C47.605125,20.84 47.341125,20.908 47.085125,20.98 C46.829125,21.052 46.605125,21.112 46.413125,21.16 C45.117125,21.496 44.113125,21.868 43.401125,22.276 C42.689125,22.684 42.193125,23.132 41.913125,23.62 C41.633125,24.108 41.493125,24.664 41.493125,25.288 C41.493125,26.264 41.777125,27.024 42.345125,27.568 C42.913125,28.112 43.669125,28.384 44.613125,28.384 C45.477125,28.384 46.145125,28.228 46.617125,27.916 C47.089125,27.604 47.557125,27.192 48.021125,26.68 C48.229125,27.224 48.561125,27.644 49.017125,27.94 C49.473125,28.236 50.077125,28.384 50.829125,28.384 Z M46.869125,26.296 C46.517125,26.296 46.221125,26.152 45.981125,25.864 C45.741125,25.576 45.621125,25.136 45.621125,24.544 C45.621125,23.888 45.797125,23.368 46.149125,22.984 C46.501125,22.6 46.845125,22.328 47.181125,22.168 C47.405125,22.056 47.637125,21.968 47.877125,21.904 L47.877125,21.904 L47.877125,25.84 C47.589125,26.032 47.377125,26.156 47.241125,26.212 C47.105125,26.268 46.981125,26.296 46.869125,26.296 Z M63.8201667,28.384 C64.7161667,28.384 65.5601667,28.132 66.3521667,27.628 C67.1441667,27.124 67.7881667,26.4 68.2841667,25.456 C68.7801667,24.512 69.0281667,23.384 69.0281667,22.072 C69.0281667,20.696 68.8161667,19.556 68.3921667,18.652 C67.9681667,17.748 67.3961667,17.068 66.6761667,16.612 C65.9561667,16.156 65.1561667,15.928 64.2761667,15.928 C62.9481667,15.928 61.8121667,16.392 60.8681667,17.32 L60.8681667,17.32 L60.8681667,14.296 L60.9641667,10.96 L60.5561667,10.696 L55.0841667,11.776 L55.0841667,12.856 L56.3801667,13.024 L56.3801667,24.712 C56.3801667,25.368 56.3721667,25.984 56.3561667,26.56 L56.3561667,26.56 L55.2761667,26.8 L55.2761667,28.024 L60.1961667,28.384 L60.6761667,27.04 C61.0601667,27.472 61.5081667,27.804 62.0201667,28.036 C62.5321667,28.268 63.1321667,28.384 63.8201667,28.384 Z M62.0681667,26.08 C61.6361667,26.08 61.2601667,25.968 60.9401667,25.744 L60.9401667,25.744 L60.9401667,18.664 C61.1161667,18.552 61.2961667,18.464 61.4801667,18.4 C61.6641667,18.336 61.8601667,18.304 62.0681667,18.304 C62.7081667,18.304 63.2201667,18.588 63.6041667,19.156 C63.9881667,19.724 64.1801667,20.696 64.1801667,22.072 C64.1801667,23.432 63.9881667,24.44 63.6041667,25.096 C63.2201667,25.752 62.7081667,26.08 62.0681667,26.08 Z M80.0032083,28.384 C80.8512083,28.384 81.5272083,28.228 82.0312083,27.916 C82.5352083,27.604 82.9312083,27.08 83.2192083,26.344 L83.2192083,26.344 L82.5232083,25.96 C82.3792083,26.168 82.2592083,26.308 82.1632083,26.38 C82.0672083,26.452 81.9712083,26.488 81.8752083,26.488 C81.6032083,26.488 81.4672083,26.352 81.4672083,26.08 L81.4672083,26.08 L81.4672083,20.584 C81.4672083,18.936 81.1272083,17.748 80.4472083,17.02 C79.7672083,16.292 78.5952083,15.928 76.9312083,15.928 C74.9952083,15.928 73.5352083,16.252 72.5512083,16.9 C71.5672083,17.548 71.0752083,18.392 71.0752083,19.432 C71.3152083,20.296 71.9232083,20.728 72.8992083,20.728 C73.4112083,20.728 73.8672083,20.524 74.2672083,20.116 C74.6672083,19.708 74.8672083,19.016 74.8672083,18.04 L74.8672083,18.04 L74.8672083,17.224 L74.8672083,17.224 L75.2272083,17.224 C75.9792083,17.224 76.4712083,17.416 76.7032083,17.8 C76.9352083,18.184 77.0512083,18.888 77.0512083,19.912 L77.0512083,19.912 L77.0512083,20.776 C76.7792083,20.84 76.5152083,20.908 76.2592083,20.98 C76.0032083,21.052 75.7792083,21.112 75.5872083,21.16 C74.2912083,21.496 73.2872083,21.868 72.5752083,22.276 C71.8632083,22.684 71.3672083,23.132 71.0872083,23.62 C70.8072083,24.108 70.6672083,24.664 70.6672083,25.288 C70.6672083,26.264 70.9512083,27.024 71.5192083,27.568 C72.0872083,28.112 72.8432083,28.384 73.7872083,28.384 C74.6512083,28.384 75.3192083,28.228 75.7912083,27.916 C76.2632083,27.604 76.7312083,27.192 77.1952083,26.68 C77.4032083,27.224 77.7352083,27.644 78.1912083,27.94 C78.6472083,28.236 79.2512083,28.384 80.0032083,28.384 Z M76.0432083,26.296 C75.6912083,26.296 75.3952083,26.152 75.1552083,25.864 C74.9152083,25.576 74.7952083,25.136 74.7952083,24.544 C74.7952083,23.888 74.9712083,23.368 75.3232083,22.984 C75.6752083,22.6 76.0192083,22.328 76.3552083,22.168 C76.5792083,22.056 76.8112083,21.968 77.0512083,21.904 L77.0512083,21.904 L77.0512083,25.84 C76.7632083,26.032 76.5512083,26.156 76.4152083,26.212 C76.2792083,26.268 76.1552083,26.296 76.0432083,26.296 Z M88.72225,28.384 C90.48225,28.384 91.87825,28.032 92.91025,27.328 C93.94225,26.624 94.45825,25.568 94.45825,24.16 C94.45825,23.216 94.21425,22.424 93.72625,21.784 C93.23825,21.144 92.43425,20.672 91.31425,20.368 L91.31425,20.368 L89.97025,20.008 C89.13825,19.784 88.61025,19.552 88.38625,19.312 C88.16225,19.072 88.05025,18.824 88.05025,18.568 C88.05025,18.152 88.20625,17.844 88.51825,17.644 C88.83025,17.444 89.21025,17.344 89.65825,17.344 C89.91425,17.344 90.13425,17.356 90.31825,17.38 C90.50225,17.404 90.67425,17.432 90.83425,17.464 L90.83425,17.464 L91.36225,19.6 L93.57025,19.6 L93.76225,16.888 C93.10625,16.568 92.46225,16.328 91.83025,16.168 C91.19825,16.008 90.51425,15.928 89.77825,15.928 C88.05025,15.928 86.72625,16.32 85.80625,17.104 C84.88625,17.888 84.42625,18.88 84.42625,20.08 C84.42625,21.008 84.67425,21.796 85.17025,22.444 C85.66625,23.092 86.38625,23.544 87.33025,23.8 L87.33025,23.8 L88.69825,24.16 C89.49825,24.368 90.02225,24.6 90.27025,24.856 C90.51825,25.112 90.64225,25.4 90.64225,25.72 C90.64225,26.168 90.47425,26.488 90.13825,26.68 C89.80225,26.872 89.33025,26.968 88.72225,26.968 C88.41825,26.968 88.12225,26.94 87.83425,26.884 C87.54625,26.828 87.26625,26.744 86.99425,26.632 L86.99425,26.632 L86.61025,24.136 L84.42625,24.136 L84.30625,27.208 C85.58625,27.992 87.05825,28.384 88.72225,28.384 Z M99.5292917,14.512 C100.137292,14.512 100.657292,14.316 101.089292,13.924 C101.521292,13.532 101.737292,13.04 101.737292,12.448 C101.737292,11.84 101.521292,11.344 101.089292,10.96 C100.657292,10.576 100.137292,10.384 99.5292917,10.384 C98.9212917,10.384 98.4012917,10.576 97.9692917,10.96 C97.5372917,11.344 97.3212917,11.84 97.3212917,12.448 C97.3212917,13.04 97.5372917,13.532 97.9692917,13.924 C98.4012917,14.316 98.9212917,14.512 99.5292917,14.512 Z M102.889292,28 L102.889292,26.776 L101.881292,26.56 C101.865292,25.984 101.857292,25.364 101.857292,24.7 L101.857292,24.7 L101.857292,19.768 L101.929292,16.192 L101.497292,15.928 L95.9292917,17.584 L95.9292917,18.568 L97.2252917,18.784 C97.2572917,19.264 97.2772917,19.724 97.2852917,20.164 C97.2932917,20.604 97.2972917,21.152 97.2972917,21.808 L97.2972917,21.808 L97.2972917,24.676 C97.2972917,25.324 97.2892917,25.944 97.2732917,26.536 L97.2732917,26.536 L96.1932917,26.776 L96.1932917,28 L102.889292,28 Z M108.992333,28.384 C110.752333,28.384 112.148333,28.032 113.180333,27.328 C114.212333,26.624 114.728333,25.568 114.728333,24.16 C114.728333,23.216 114.484333,22.424 113.996333,21.784 C113.508333,21.144 112.704333,20.672 111.584333,20.368 L111.584333,20.368 L110.240333,20.008 C109.408333,19.784 108.880333,19.552 108.656333,19.312 C108.432333,19.072 108.320333,18.824 108.320333,18.568 C108.320333,18.152 108.476333,17.844 108.788333,17.644 C109.100333,17.444 109.480333,17.344 109.928333,17.344 C110.184333,17.344 110.404333,17.356 110.588333,17.38 C110.772333,17.404 110.944333,17.432 111.104333,17.464 L111.104333,17.464 L111.632333,19.6 L113.840333,19.6 L114.032333,16.888 C113.376333,16.568 112.732333,16.328 112.100333,16.168 C111.468333,16.008 110.784333,15.928 110.048333,15.928 C108.320333,15.928 106.996333,16.32 106.076333,17.104 C105.156333,17.888 104.696333,18.88 104.696333,20.08 C104.696333,21.008 104.944333,21.796 105.440333,22.444 C105.936333,23.092 106.656333,23.544 107.600333,23.8 L107.600333,23.8 L108.968333,24.16 C109.768333,24.368 110.292333,24.6 110.540333,24.856 C110.788333,25.112 110.912333,25.4 110.912333,25.72 C110.912333,26.168 110.744333,26.488 110.408333,26.68 C110.072333,26.872 109.600333,26.968 108.992333,26.968 C108.688333,26.968 108.392333,26.94 108.104333,26.884 C107.816333,26.828 107.536333,26.744 107.264333,26.632 L107.264333,26.632 L106.880333,24.136 L104.696333,24.136 L104.576333,27.208 C105.856333,27.992 107.328333,28.384 108.992333,28.384 Z" id="Katabasis"></path>
            </g>
        </g>
    </g>
</svg>