<?xml version="1.0" encoding="UTF-8"?>
<svg width="101px" height="101px" viewBox="0 0 101 101" version="1.1" xmlns="http://www.w3.org/2000/svg" xmlns:xlink="http://www.w3.org/1999/xlink">
    <title>Group 17 Copy</title>
    <g id="process-1" stroke="none" stroke-width="1" fill="none" fill-rule="evenodd">
        <g id="Pixel-2-XL-Copy-2" transform="translate(-130.000000, -956.000000)" fill="#FFFFFF">
            <g id="Group-15" transform="translate(40.000000, 601.000000)">
                <g id="Group-6" transform="translate(0.000000, 355.000000)">
                    <g id="Group-8" transform="translate(90.000000, 0.000000)">
                        <circle id="Oval" fill-opacity="0.370656687" cx="50.5" cy="50.5" r="50.5"></circle>
                        <g id="Group" transform="translate(27.456311, 27.456311)" fill-rule="nonzero">
                            <path d="M25.1846112,21.3143594 L30.4846562,21.3143594 C31.1716991,21.3143594 31.858742,21.7079841 32.2513379,22.3968273 C32.5457848,23.0856706 32.5457848,23.87292 32.0550399,24.463357 C31.760593,24.8569818 31.466146,25.4474188 31.466146,26.3330744 C31.466146,27.21873 31.858742,28.1043856 32.5457848,28.6948227 C33.2328277,29.2852598 34.2143175,29.4820721 35.0976584,29.2852598 C36.2754462,29.0884474 37.158787,28.1043856 37.453234,26.9235115 C37.7476809,25.7426374 37.256936,24.9553879 36.8643401,24.3649509 C36.4717441,23.7745138 36.3735951,22.9872644 36.6680421,22.2984211 C36.962489,21.6095779 37.6495319,21.2159532 38.4347238,21.2159532 L45.5995995,21.2159532 C45.7958974,21.2159532 46.0903444,21.3143594 46.2866424,21.3143594 L46.2866424,5.27415238 C46.2866424,2.5187794 44.0292158,0.157031135 41.1828953,0.157031135 L25.1846112,0.157031135 L25.1846112,21.3143594 Z" id="Path"></path>
                            <path d="M0.647365627,21.3143594 L5.16221881,21.3143594 C5.06406983,20.4287038 5.06406983,19.6414543 5.26036779,18.7557987 C5.84926168,16.0988319 8.00853929,14.0323022 10.5604128,13.4418651 C12.6215415,13.0482404 14.7808191,13.5402713 16.3512028,14.9179578 C17.9215865,16.1972381 18.9030763,18.1653617 18.9030763,20.2318914 C18.9030763,20.6255161 18.9030763,20.9207346 18.8049273,21.3143594 L21.2586519,21.3143594 L21.2586519,0.157031135 L5.26036779,0.157031135 C2.51219629,0.157031135 0.156620716,2.42037322 0.156620716,5.27415238 L0.156620716,21.5111717 C0.352918681,21.4127655 0.451067663,21.3143594 0.647365627,21.3143594 Z" id="Path"></path>
                            <path d="M45.5995995,25.2506065 L41.2810443,25.2506065 C41.3791932,26.1362621 41.3791932,27.0219177 41.1828953,27.8091671 C40.5940014,30.4661339 38.4347238,32.5326636 35.8828502,33.0246945 C35.3921053,33.1231007 34.9995094,33.1231007 34.5087645,33.1231007 C32.9383808,33.1231007 31.3679971,32.5326636 30.0920603,31.5486018 C28.5216766,30.2693215 27.5401868,28.301198 27.5401868,26.2346682 C27.5401868,25.8410435 27.5401868,25.545825 27.6383357,25.1522003 L25.1846112,25.1522003 L25.1846112,46.3095285 L41.2810443,46.3095285 C44.0292158,46.3095285 46.3847913,44.0461864 46.3847913,41.1924073 L46.3847913,25.0537941 C46.0903444,25.1522003 45.7958974,25.2506065 45.5995995,25.2506065 Z" id="Path"></path>
                            <path d="M21.2586519,25.2506065 L15.9586069,25.2506065 C15.271564,25.2506065 14.5845211,24.8569818 14.1919252,24.1681385 C13.8974782,23.4792953 13.8974782,22.6920458 14.3882231,22.1016088 C14.6826701,21.7079841 14.977117,21.117547 14.977117,20.2318914 C14.977117,19.3462358 14.5845211,18.4605802 13.8974782,17.8701431 C13.2104353,17.2797061 12.2289455,17.0828937 11.3456047,17.2797061 C10.1678169,17.4765184 9.28447606,18.4605802 8.99002911,19.6414543 C8.69558217,20.8223285 9.18632708,21.6095779 9.57892301,22.200015 C9.97151894,22.790452 10.0696679,23.5777014 9.77522097,24.2665447 C9.48077403,24.7585756 8.79373115,25.2506065 8.00853929,25.2506065 L0.647365627,25.2506065 C0.451067663,25.2506065 0.352918681,25.2506065 0.156620716,25.1522003 L0.156620716,41.3892196 C0.156620716,44.1445926 2.41404731,46.5063409 5.26036779,46.5063409 L21.2586519,46.5063409 L21.2586519,25.2506065 Z" id="Path"></path>
                        </g>
                    </g>
                </g>
            </g>
        </g>
    </g>
</svg>