<?xml version="1.0" encoding="UTF-8"?>
<svg width="101px" height="101px" viewBox="0 0 101 101" version="1.1" xmlns="http://www.w3.org/2000/svg" xmlns:xlink="http://www.w3.org/1999/xlink">
    <title>Group 17</title>
    <g id="process-1" stroke="none" stroke-width="1" fill="none" fill-rule="evenodd">
        <g id="Pixel-2-XL-Copy-2" transform="translate(-130.000000, -678.000000)" fill="#FFFFFF">
            <g id="Group-15" transform="translate(40.000000, 601.000000)">
                <g id="Group-21" transform="translate(0.000000, 77.000000)">
                    <g id="Group-17" transform="translate(90.000000, 0.000000)">
                        <g id="Group-9" fill-opacity="0.370656687">
                            <circle id="Oval" cx="50.470001" cy="50.470001" r="50.470001"></circle>
                        </g>
                        <g id="noun_radio-button_116305-copy-2" transform="translate(25.480000, 27.440001)" fill-rule="nonzero">
                            <path d="M7.04095744,14.1222743 C10.923623,14.1222743 14.0819149,10.9549306 14.0819149,7.06113716 C14.0819149,3.16734368 10.923623,0 7.04095744,0 C3.15829187,0 0,3.16734368 0,7.06113716 C0,10.9549306 3.15829187,14.1222743 7.04095744,14.1222743 Z M7.04095744,2.82445486 C9.37066943,2.82445486 11.2655319,4.7247481 11.2655319,7.06113716 C11.2655319,9.39752622 9.37066943,11.2978195 7.04095744,11.2978195 C4.71124544,11.2978195 2.81638297,9.39752622 2.81638297,7.06113716 C2.81638297,4.7247481 4.71124544,2.82445486 7.04095744,2.82445486 Z" id="Shape"></path>
                            <path d="M7.10272065,9.9103682 C8.63524071,9.9103682 9.88204611,8.65998947 9.88204611,7.12307722 C9.88204611,5.58616497 8.63524071,4.33578623 7.10272065,4.33578623 C5.57020058,4.33578623 4.32339518,5.58616497 4.32339518,7.12307722 C4.32339518,8.65998947 5.57020058,9.9103682 7.10272065,9.9103682 Z" id="Path"></path>
                            <path d="M7.04095744,30.4743814 C10.923623,30.4743814 14.0819149,27.3070377 14.0819149,23.4132443 C14.0819149,19.5194508 10.923623,16.3521071 7.04095744,16.3521071 C3.15829187,16.3521071 0,19.5194508 0,23.4132443 C0,27.3070377 3.15829187,30.4743814 7.04095744,30.4743814 Z M7.04095744,19.176562 C9.37066943,19.176562 11.2655319,21.0768552 11.2655319,23.4132443 C11.2655319,25.7496333 9.37066943,27.6499266 7.04095744,27.6499266 C4.71124544,27.6499266 2.81638297,25.7496333 2.81638297,23.4132443 C2.81638297,21.0768552 4.71124544,19.176562 7.04095744,19.176562 Z" id="Shape"></path>
                            <path d="M7.04095744,46.8264885 C10.923623,46.8264885 14.0819149,43.6591448 14.0819149,39.7653514 C14.0819149,35.8715579 10.923623,32.7042142 7.04095744,32.7042142 C3.15829187,32.7042142 0,35.8715579 0,39.7653514 C0,43.6591448 3.15829187,46.8264885 7.04095744,46.8264885 Z M7.04095744,35.5286691 C9.37066943,35.5286691 11.2655319,37.4289623 11.2655319,39.7653514 C11.2655319,42.1017404 9.37066943,44.0020337 7.04095744,44.0020337 C4.71124544,44.0020337 2.81638297,42.1017404 2.81638297,39.7653514 C2.81638297,37.4289623 4.71124544,35.5286691 7.04095744,35.5286691 Z" id="Shape"></path>
                            <path d="M46.4279675,5.57458197 L20.2758398,5.57458197 C19.5155011,5.57458197 18.8994121,6.15679131 18.8994121,6.87531776 C18.8994121,7.59384421 19.5155011,8.17605355 20.2758398,8.17605355 L46.4279675,8.17605355 C47.1883062,8.17605355 47.8043952,7.59384421 47.8043952,6.87531776 C47.8043952,6.15679131 47.1883062,5.57458197 46.4279675,5.57458197 Z" id="Path"></path>
                            <path d="M46.4279675,22.2983279 L20.2758398,22.2983279 C19.5155011,22.2983279 18.8994121,22.8805372 18.8994121,23.5990637 C18.8994121,24.3175901 19.5155011,24.8997995 20.2758398,24.8997995 L46.4279675,24.8997995 C47.1883062,24.8997995 47.8043952,24.3175901 47.8043952,23.5990637 C47.8043952,22.8805372 47.1883062,22.2983279 46.4279675,22.2983279 Z" id="Path"></path>
                            <path d="M46.4279675,38.650435 L20.2758398,38.650435 C19.5155011,38.650435 18.8994121,39.2326443 18.8994121,39.9511708 C18.8994121,40.6696972 19.5155011,41.2519066 20.2758398,41.2519066 L46.4279675,41.2519066 C47.1883062,41.2519066 47.8043952,40.6696972 47.8043952,39.9511708 C47.8043952,39.2326443 47.1883062,38.650435 46.4279675,38.650435 Z" id="Path"></path>
                        </g>
                    </g>
                </g>
            </g>
        </g>
    </g>
</svg>