<?xml version="1.0" encoding="UTF-8"?>
<svg width="101px" height="101px" viewBox="0 0 101 101" version="1.1" xmlns="http://www.w3.org/2000/svg" xmlns:xlink="http://www.w3.org/1999/xlink">
    <title>Group 3</title>
    <g id="process-1" stroke="none" stroke-width="1" fill="none" fill-rule="evenodd">
        <g id="Pixel-2-XL-Copy-2" transform="translate(-130.000000, -2328.000000)" fill="#FFFFFF">
            <g id="Group-16" transform="translate(40.000000, 1552.000000)">
                <g id="Group-12" transform="translate(18.000000, 776.000000)">
                    <g id="Group-3" transform="translate(72.000000, 0.000000)">
                        <g id="Group-9-Copy" fill-opacity="0.370656687">
                            <circle id="Oval" cx="50.5" cy="50.5" r="50.5"></circle>
                        </g>
                        <g id="noun_pc-monitor_3017255" transform="translate(23.533981, 27.456311)" fill-rule="nonzero">
                            <path d="M50.5980583,0 L3.53009709,0 C1.5804783,0 0,1.5804783 0,3.53009709 L0,35.3009709 C0,37.2505897 1.5804783,38.831068 3.53009709,38.831068 L19.415534,38.831068 L19.415534,40.5961165 L15.5794951,45.1264078 C15.2809319,45.4754668 15.2127708,45.9663467 15.4049352,46.3835458 C15.5970996,46.8007449 16.0144584,47.0679612 16.4737864,47.0679612 L37.6543689,47.0679612 C38.113697,47.0679612 38.5310557,46.8007449 38.7232201,46.3835458 C38.9153846,45.9663467 38.8472234,45.4754668 38.5486602,45.1264078 L34.7126214,40.5961165 L34.7126214,38.831068 L50.5980583,38.831068 C52.547677,38.831068 54.1281553,37.2505897 54.1281553,35.3009709 L54.1281553,3.53009709 C54.1281553,1.5804783 52.547677,0 50.5980583,0 Z M19.0154563,44.7145631 L21.0158447,42.361165 L33.1123107,42.361165 L35.112699,44.7145631 L19.0154563,44.7145631 Z M32.3592233,40.007767 L21.768932,40.007767 L21.768932,38.831068 L32.3592233,38.831068 L32.3592233,40.007767 Z M51.7747573,35.3009709 C51.7747573,35.9508438 51.2479312,36.4776699 50.5980583,36.4776699 L3.53009709,36.4776699 C2.88022416,36.4776699 2.35339806,35.9508438 2.35339806,35.3009709 L2.35339806,3.53009709 C2.35339806,2.88022416 2.88022416,2.35339806 3.53009709,2.35339806 L50.5980583,2.35339806 C51.2479312,2.35339806 51.7747573,2.88022416 51.7747573,3.53009709 L51.7747573,35.3009709 Z" id="Shape"></path>
                        </g>
                    </g>
                </g>
            </g>
        </g>
    </g>
</svg>