<?xml version="1.0" encoding="UTF-8"?>
<svg width="160px" height="443px" viewBox="0 0 160 443" version="1.1" xmlns="http://www.w3.org/2000/svg" xmlns:xlink="http://www.w3.org/1999/xlink">
    <title>_x33__HAND__x26__CAP</title>
    <g id="website-update" stroke="none" stroke-width="1" fill="none" fill-rule="evenodd">
        <g id="_x33__HAND__x26__CAP" transform="translate(1.000000, 0.000000)">
            <g id="HAND_4_" transform="translate(0.000000, -0.000000)">
                <g id="DRESS_4_" transform="translate(0.000000, 268.947265)">
                    <path d="M158.986849,173.090239 L0,173.090239 L0,15.4010099 C0,22.1318216 26.1414633,27.5792159 58.4120592,27.5792159 C90.682655,27.5792159 116.824118,22.1318216 116.824118,15.4010099 L116.824118,15.3724895 L158.986849,173.090239 Z" id="Path" fill="#1D9DF7"></path>
                    <path d="M116.396504,12.2637671 L116.396504,12.2637671 C116.396504,19.0230993 90.5401171,24.4704935 58.6116123,24.4704935 C26.6831075,24.4704935 0.826720212,19.0230993 0.826720212,12.2922875 L0.826720212,12.2637671 C0.912242993,5.56147579 26.7401227,0.114081555 58.6116123,0.114081555 C90.4831019,0.114081555 116.339489,5.56147579 116.396504,12.2637671 Z" id="Path" stroke="#1D9DF7" stroke-width="2.75018049" fill="#FFFFFF" fill-rule="nonzero"></path>
                </g>
                <g id="HAND_6_" transform="translate(3.705987, 144.598371)" fill-rule="nonzero">
                    <path d="M112.690517,136.726743 C112.490964,143.400514 86.6915919,148.819388 54.9056251,148.819388 C48.7764925,148.819388 42.9039283,148.619745 37.3734551,148.24898 L37.3734551,89.5825409 L7.21242116,89.5825409 C3.36389604,89.5825409 0.256568342,86.4738185 0.256568342,82.623566 L0.256568342,77.9177019 C0.256568342,75.8071931 1.19731893,73.9248475 2.67971379,72.64143 C1.19731893,71.3580125 0.256568342,69.4756668 0.256568342,67.3651581 L0.256568342,62.6592939 C0.256568342,60.8054687 0.997765774,59.0942454 2.1950847,57.8678686 C0.997765774,56.6129715 0.256568342,54.9302686 0.256568342,53.0764433 L0.256568342,48.3705792 C0.256568342,46.4597132 1.02627337,44.7199695 2.28060748,43.436552 C1.02627337,42.1816549 0.256568342,40.4419112 0.256568342,38.5310451 L0.256568342,30.0034489 C0.256568342,26.1531964 3.36389604,23.0444741 7.21242116,23.0444741 L45.72618,23.0444741 C47.0090217,22.302944 49.0900761,19.6790682 45.5551345,18.1389672 L37.2879323,16.1995808 C30.7311858,12.9197361 26.5690772,7.47234184 26.5690772,0.114081555 L55.6468226,0.114081555 C60.5216211,0.114081555 64.8832829,3.19428353 66.5367233,7.78606611 L111.977827,134.701796 L112.690517,136.726743 Z" id="HAND_5_" fill="#E57281"></path>
                    <path d="M112.833055,136.783784 C112.747532,136.698223 112.690517,136.641182 112.690517,136.641182 C112.690517,143.371994 86.8341299,148.819388 54.9056251,148.819388 C48.7764925,148.819388 42.9039283,148.619745 37.3734551,148.24898 L37.3734551,125.061904 C42.9039283,124.691139 48.8050001,124.491497 54.9056251,124.491497 C83.6982946,124.491497 107.587658,128.940677 111.977827,134.730316 L111.977827,134.730316 C112.091858,134.872918 112.405441,135.642969 112.833055,136.783784 Z" id="Path" fill="#9A3B82"></path>
                </g>
                <g id="WINEGLASS" transform="translate(4.276139, 0.000000)">
                    <path d="M45.8117028,88.3561641 L45.8117028,111.486199 C45.8117028,124.063691 35.6344919,134.24547 23.0626432,134.24547 C10.4907944,134.24547 0.313583529,124.063691 0.313583529,111.486199 L0.313583529,88.3561641 C0.313583529,94.0032011 10.4907944,98.5664633 23.0626432,98.5664633 C35.6344919,98.5664633 45.8117028,94.0032011 45.8117028,88.3561641 Z" id="Path" fill="#FFFFFF" fill-rule="nonzero"></path>
                    <ellipse id="Oval" fill="#F7771D" fill-rule="nonzero" cx="23.0626432" cy="88.3561641" rx="22.7490596" ry="10.2102991"></ellipse>
                    <path d="M45.8117028,48.8269054 L45.8117028,111.457679 C45.8117028,119.899714 41.2219803,127.257974 34.4086654,131.193788 C34.4086654,131.193788 34.4086654,131.193788 34.3801578,131.193788 C31.0447694,133.104654 27.1677366,134.216949 23.0626432,134.216949 C18.9575497,134.216949 15.1090246,133.133174 11.7736361,131.222308 C11.7451285,131.222308 11.7451285,131.193788 11.7166209,131.193788 C4.90330609,127.257974 0.313583529,119.899714 0.313583529,111.457679 L0.313583529,48.8269054 L45.8117028,48.8269054 Z" id="Path" stroke="#F7771D" stroke-width="1.71122332"></path>
                    <ellipse id="Oval" stroke="#F7771D" stroke-width="1.42601943" fill="#FFFFFF" fill-rule="nonzero" cx="23.0626432" cy="48.8269054" rx="23.005628" ry="10.2102991"></ellipse>
                    <ellipse id="Oval" fill="#F7771D" fill-rule="nonzero" cx="23.0626432" cy="47.0016006" rx="3.36389604" ry="3.36540586"></ellipse>
                    <ellipse id="Oval" stroke="#F7771D" stroke-width="1.42601943" fill="#FFFFFF" fill-rule="nonzero" cx="15.6506689" cy="116.135023" rx="2.96478973" ry="2.96612042"></ellipse>
                    <ellipse id="Oval" fill="#FFFFFF" fill-rule="nonzero" cx="33.4394072" cy="88.3561641" rx="2.45165304" ry="2.45275343"></ellipse>
                    <ellipse id="Oval" fill="#F7771D" fill-rule="nonzero" cx="9.7210894" cy="106.751815" rx="2.45165304" ry="2.45275343"></ellipse>
                    <path d="M44.9279674,250.152329 L1.19731893,250.152329 C0.399106309,250.152329 0.171045561,249.097075 0.855227806,248.72631 L16.1352979,242.936671 C18.5299358,242.024018 20.126361,239.713867 20.126361,237.147032 L20.126361,145.99587 C20.126361,139.949547 16.9905257,134.27399 11.7736361,131.222308 C15.1090246,133.133174 18.9575497,134.216949 23.0626432,134.216949 C27.1962442,134.216949 31.0447694,133.104654 34.3801578,131.193788 C29.1347606,134.216949 25.9989253,139.921027 25.9989253,145.967349 L25.9989253,237.118512 C25.9989253,239.685347 27.5953505,241.995498 29.9899884,242.90815 L45.2700585,248.697789 C45.9542408,249.097075 45.72618,250.152329 44.9279674,250.152329 Z" id="Path" stroke="#F7771D" stroke-width="1.69764221" fill="#FFFFFF" fill-rule="nonzero"></path>
                    <ellipse id="Oval" fill="#F7771D" fill-rule="nonzero" cx="6.87033004" cy="10.6951458" rx="3.87703272" ry="3.87877286"></ellipse>
                    <ellipse id="Oval" stroke="#F7771D" stroke-width="1.42601943" fill="#FFFFFF" fill-rule="nonzero" cx="33.4394072" cy="17.4544779" rx="3.36389604" ry="3.36540586"></ellipse>
                    <ellipse id="Oval" stroke="#F7771D" stroke-width="1.42601943" fill="#FFFFFF" fill-rule="nonzero" cx="16.9620182" cy="31.4865091" rx="2.45165304" ry="2.45275343"></ellipse>
                    <ellipse id="Oval" fill="#F7771D" fill-rule="nonzero" cx="15.6791764" cy="2.05346799" rx="2.02403914" ry="2.0249476"></ellipse>
                </g>
                <g id="FINGERS_1_" transform="translate(3.705987, 167.414682)">
                    <path d="M52.9386012,9.38320788 L52.9386012,66.7947503 L7.21242116,66.7947503 C3.36389604,66.7947503 0.256568342,63.6860279 0.256568342,59.8357755 L0.256568342,55.1299113 C0.256568342,53.0194026 1.19731893,51.1370569 2.67971379,49.8536394 C1.19731893,48.5702219 0.256568342,46.6878763 0.256568342,44.5773675 L0.256568342,39.8715034 C0.256568342,38.0176781 0.997765774,36.3064548 2.1950847,35.0800781 C0.997765774,33.825181 0.256568342,32.142478 0.256568342,30.2886528 L0.256568342,25.5827886 C0.256568342,23.6719226 1.02627337,21.9321789 2.28060748,20.6487614 C1.02627337,19.3938643 0.256568342,17.6541206 0.256568342,15.7432546 L0.256568342,9.41172827 L52.9386012,9.41172827 L52.9386012,9.38320788 Z" id="Path" fill="#E57281" fill-rule="nonzero"></path>
                    <g id="Group" transform="translate(0.855228, 0.000000)" stroke="#9A3B82" stroke-linecap="round" stroke-width="1.42601943">
                        <path d="M0.199553155,44.1780821 C0.199553155,48.5417015 3.73449475,52.0782297 8.09615656,52.0782297 L45.099013,52.0782297 C49.4606748,52.0782297 52.9956164,48.5417015 52.9956164,44.1780821" id="Path"></path>
                        <path d="M0.199553155,29.9464081 C0.199553155,34.3100276 3.73449475,37.8465558 8.09615656,37.8465558 L45.099013,37.8465558 C49.4606748,37.8465558 52.9956164,34.3100276 52.9956164,29.9464081" id="Path"></path>
                        <path d="M0.199553155,15.7147342 C0.199553155,20.0783536 3.73449475,23.6148818 8.09615656,23.6148818 L45.099013,23.6148818 C49.4606748,23.6148818 52.9956164,20.0783536 52.9956164,15.7147342" id="Path"></path>
                        <path d="M7.72555785,66.3099037 L45.099013,66.3099037 C49.4606748,66.3099037 52.9956164,62.7733755 52.9956164,58.409756 L52.9956164,5.0481088" id="Path"></path>
                        <path d="M18.0453067,4.81994569 L14.2537968,4.81994569 C12.9994627,4.81994569 11.9731893,5.84667968 11.9731893,7.10157678 L11.9731893,7.10157678 C11.9731893,8.35647388 12.9994627,9.38320788 14.2537968,9.38320788 L35.4634464,9.38320788 C37.7440538,9.38320788 39.625555,7.52938261 39.625555,5.21923113 L39.625555,5.21923113 C39.625555,2.48127382 41.8491473,0.256683498 44.5858763,0.256683498 L48.0352951,0.256683498 C50.7720241,0.256683498 52.9956164,2.48127382 52.9956164,5.21923113 L52.9956164,14.4598371" id="Path"></path>
                    </g>
                </g>
            </g>
        </g>
    </g>
</svg>