<?xml version="1.0" encoding="UTF-8"?>
<svg width="101px" height="101px" viewBox="0 0 101 101" version="1.1" xmlns="http://www.w3.org/2000/svg" xmlns:xlink="http://www.w3.org/1999/xlink">
    <title>Group 9</title>
    <g id="process-1" stroke="none" stroke-width="1" fill="none" fill-rule="evenodd">
        <g id="Pixel-2-XL-Copy-2" transform="translate(-130.000000, -1911.000000)" fill="#FFFFFF">
            <g id="Group-16" transform="translate(40.000000, 1552.000000)">
                <g id="Group-10" transform="translate(18.000000, 359.000000)">
                    <g id="Group-19" transform="translate(72.000000, 0.000000)">
                        <circle id="Oval" fill-opacity="0.370656687" cx="50.5" cy="50.5" r="50.5"></circle>
                        <g id="noun_strategy_2724255" transform="translate(31.378641, 27.456311)" fill-rule="nonzero">
                            <path d="M4.29573592,42.4841693 L8.86383845,42.4841693 L8.86383845,42.2573017 C8.86383845,41.7320233 9.08035107,41.2569507 9.42865398,40.9152373 L4.42219184,40.9152373 L4.42219184,40.5295938 L5.94123184,38.9346175 L11.7616559,38.9346175 L11.7616559,38.7290874 C11.7616559,38.2304808 11.9546346,37.7607425 12.3045064,37.4064777 L12.9640854,36.7381126 L6.11130408,36.7381126 L5.16837592,35.0684551 C9.04144155,31.7325918 9.64485282,27.333934 9.64485282,24.9221717 L9.64485282,24.6256435 L12.447593,24.6256435 L12.447593,22.4291386 L7.3874734,22.4291386 L7.3874734,21.727826 L12.4479068,21.727826 L12.4479068,19.5313212 L8.33322563,19.5313212 C7.34228816,18.6364023 6.77527612,17.3843946 6.77527612,16.0366819 C6.77527612,13.434765 8.89207922,11.3179619 11.4943099,11.3179619 C12.2709313,11.3179619 13.0180567,11.5056062 13.686108,11.857047 C13.9462369,11.1717375 14.2449616,10.5024311 14.5816544,9.85257942 C13.6340194,9.37844816 12.5850315,9.12177087 11.4943099,9.12177087 C7.68117748,9.12177087 4.57877126,12.2241771 4.57877126,16.0369957 C4.57877126,17.5230882 5.04505786,18.9332443 5.8938501,20.098647 C5.46302136,20.4930765 5.19096854,21.057892 5.19096854,21.6864062 L5.19096854,22.471186 C5.19096854,23.6591814 6.15774447,24.6259573 7.34573981,24.6259573 L7.44866175,24.6259573 L7.44866175,24.9224854 C7.44866175,27.0719223 6.88353243,31.0978019 3.09769942,33.9149763 C2.65369165,34.2453934 2.52503922,34.854139 2.79709204,35.3358012 L4.11436738,37.6681755 L2.52880466,39.3328124 C2.33425709,39.5370874 2.22600078,39.8085126 2.22600078,40.0902928 L2.22600078,41.7000171 C2.22600078,41.7671674 2.19462214,42.3548893 1.10641087,42.3548893 C0.499861748,42.3548893 0.0081584466,42.8465926 0.0081584466,43.4531417 L0.0081584466,45.7067557 C0.0081584466,46.3133049 0.499861748,46.8050082 1.10641087,46.8050082 L9.22092738,46.8050082 C8.99751146,46.4956148 8.86446602,46.1168746 8.86446602,45.7067557 L8.86446602,44.6085033 L2.20434951,44.6085033 L2.20434951,44.418035 C3.4005033,44.102052 4.04439301,43.2780489 4.29573592,42.4841693 Z" id="Path"></path>
                            <path d="M37.8034175,41.1590493 C36.1789452,41.1590493 36.0038524,40.247186 36.0038524,39.854953 L36.0038524,38.7287736 C36.0038524,38.4400901 35.8902617,38.1627029 35.6872419,37.9574866 L33.4229592,35.6627666 L35.2636303,32.44928 C35.4584917,32.1091355 35.4572365,31.6908583 35.2601786,31.3519689 L27.6932194,18.3266951 C27.3935534,17.8111441 27.5460536,17.1462307 28.0408948,16.8126757 C28.4801957,16.5170889 29.0782726,16.566981 29.4617196,16.9334835 L31.2851324,18.6749981 C32.5041926,19.8391456 34.3985212,19.9006478 35.6910074,18.8174571 L36.7701188,17.9124971 C37.0189515,17.7038291 37.1626656,17.3960047 37.1626656,17.0709219 L37.1626656,14.4398229 C37.1626656,14.1887938 37.0766882,13.9452955 36.9191674,13.7501204 L29.2549344,4.25588505 C29.0462664,3.99763883 28.7321662,3.84733515 28.4001802,3.84733515 L27.1346796,3.84733515 L27.1346796,1.36183301 C27.1346796,0.948890097 26.9031052,0.570777476 26.5350338,0.383133204 C26.1675899,0.195802718 25.7254649,0.230319223 25.3909685,0.473189903 L20.7277887,3.86020039 C16.0341717,7.26948971 13.2323728,12.7682827 13.2323728,18.5689383 L13.2323728,32.0557918 C13.2323728,32.2481429 13.2828924,32.4370423 13.3789111,32.6036629 L15.1354874,35.6542944 L12.8630462,37.9571728 C12.6603402,38.1623891 12.5464357,38.4397763 12.5464357,38.7284598 L12.5464357,40.482212 C12.5464357,41.0708753 11.4190012,41.1587355 10.7468707,41.1587355 C10.1403216,41.1587355 9.64861825,41.6504388 9.64861825,42.256988 L9.64861825,45.7058144 C9.64861825,46.3123635 10.1403216,46.8040668 10.7468707,46.8040668 L37.804045,46.8040668 C38.4105942,46.8040668 38.9022975,46.3123635 38.9022975,45.7058144 L38.9022975,42.256988 C38.9016699,41.6510664 38.4099666,41.1590493 37.8034175,41.1590493 Z M15.4288777,18.5689383 C15.4288777,13.4689678 17.8924148,8.63477437 22.018706,5.6374866 L24.9384885,3.51691806 L24.9384885,4.94590136 C24.9384885,5.55245049 25.4301918,6.04415379 26.036741,6.04415379 L27.8755293,6.04415379 L34.9664746,14.8279767 L34.9664746,16.5588225 L34.2799099,17.1343068 C33.8459433,17.4976715 33.2108396,17.4766478 32.8019759,17.0866113 L30.9785631,15.3450967 C29.8536388,14.2710058 28.1014555,14.1225849 26.8130485,14.9917732 C25.3630416,15.9689041 24.9155821,17.9187728 25.7938703,19.4305957 L33.0426501,31.9079984 L31.4247674,34.7330175 L17.1390136,34.7330175 L15.4288777,31.7627153 L15.4288777,18.5689383 Z M14.7426268,39.1796847 L16.9629794,36.9292085 L31.5866812,36.9292085 L33.8070338,39.1796847 L33.8070338,39.7419899 L14.7426268,39.7419899 L14.7426268,39.1796847 Z M36.705165,44.6078757 L11.8448093,44.6078757 L11.8448093,43.2811868 C13.6873631,43.0128994 14.3663969,42.0677748 14.6108365,41.3106082 L34.1339992,41.3106082 C34.5563557,42.2114889 35.3969895,42.9743037 36.7054788,43.2476117 L36.7054788,44.6078757 L36.705165,44.6078757 Z" id="Shape"></path>
                        </g>
                    </g>
                </g>
            </g>
        </g>
    </g>
</svg>